<?xml version="1.0" standalone="no"?>
<!DOCTYPE svg PUBLIC "-//W3C//DTD SVG 20010904//EN"
 "http://www.w3.org/TR/2001/REC-SVG-20010904/DTD/svg10.dtd">
<svg version="1.0" xmlns="http://www.w3.org/2000/svg"
 width="100.000000pt" height="100.000000pt" viewBox="0 0 100.000000 100.000000"
 preserveAspectRatio="xMidYMid meet">

<g transform="translate(0.000000,100.000000) scale(0.100000,-0.100000)"
fill="#000000" stroke="none">
<path d="M0 500 l0 -500 500 0 500 0 0 500 0 500 -500 0 -500 0 0 -500z m611
209 c148 -45 198 -238 91 -353 -47 -50 -96 -66 -203 -66 -88 0 -97 -2 -118
-24 -31 -33 -59 -38 -82 -15 -17 17 -18 30 -14 126 5 108 5 117 5 173 0 17 0
39 0 50 0 11 0 34 -1 52 -4 56 24 68 163 68 67 0 138 -5 159 -11z"/>
<path d="M332 648 c3 -22 7 -23 138 -28 155 -6 189 -18 228 -86 l24 -39 -6 35
c-9 49 -48 104 -89 123 -27 13 -65 17 -167 17 -131 0 -131 0 -128 -22z"/>
<path d="M337 573 c-13 -12 -7 -41 9 -47 9 -3 69 -6 134 -6 113 0 120 -1 149
-26 17 -14 31 -32 31 -40 0 -8 5 -14 10 -14 15 0 12 20 -9 66 -28 61 -64 74
-203 74 -63 0 -118 -3 -121 -7z"/>
<path d="M343 473 c-7 -2 -13 -13 -13 -24 0 -17 10 -19 117 -21 103 -3 118 -5
121 -20 3 -16 -7 -18 -101 -18 -58 0 -112 -3 -121 -6 -11 -4 -16 -19 -16 -52
l0 -45 23 21 c20 19 35 22 115 22 101 0 134 10 151 47 16 34 14 47 -10 77 -20
26 -23 26 -137 25 -64 0 -123 -3 -129 -6z m17 -23 c0 -5 -2 -10 -4 -10 -3 0
-8 5 -11 10 -3 6 -1 10 4 10 6 0 11 -4 11 -10z"/>
</g>
</svg>
