<svg version="1.1" id="Layer_1" xmlns="http://www.w3.org/2000/svg" xmlns:xlink="http://www.w3.org/1999/xlink" x="0px" y="0px"
	 width="100%" viewBox="0 0 225 225" enable-background="new 0 0 225 225" xml:space="preserve">
<path fill="#FEFEFF" opacity="1.000000" stroke="none" 
	d="
M148.000000,226.000000 
	C98.666672,226.000000 49.833340,226.000000 1.000006,226.000000 
	C1.000004,151.000000 1.000004,76.000015 1.000002,1.000017 
	C75.999992,1.000011 150.999985,1.000011 225.999969,1.000005 
	C225.999985,75.999985 225.999985,150.999969 226.000000,225.999969 
	C200.166672,226.000000 174.333328,226.000000 148.000000,226.000000 
M151.837433,170.926590 
	C162.268234,169.098206 172.699020,167.269836 183.129822,165.441467 
	C183.030655,164.837112 182.931488,164.232773 182.832336,163.628433 
	C170.201981,165.364944 157.571640,167.101456 144.156937,168.767822 
	C140.491074,169.451950 136.848526,170.512344 133.154465,170.741302 
	C125.632477,171.207504 118.077309,171.114487 110.546997,171.481415 
	C107.468399,171.631424 104.340080,173.068726 101.369766,172.730682 
	C89.048820,171.328445 76.547318,170.437653 64.546806,167.551590 
	C47.346279,163.414917 36.933010,151.864655 33.380733,134.251556 
	C29.336508,114.199242 38.965027,99.110977 59.042751,94.631287 
	C61.449265,94.094353 63.932823,93.902725 66.302208,93.562325 
	C72.110657,75.371681 79.960533,67.211967 94.175629,67.590263 
	C110.689087,68.029716 118.844475,79.329025 123.401131,93.941109 
	C126.281258,93.941109 129.109573,93.833176 131.927399,93.959373 
	C145.797379,94.580544 154.677979,102.417526 156.702591,116.017616 
	C157.164841,119.122696 157.072861,122.340446 156.956985,125.496101 
	C156.503815,137.838043 149.439621,145.052811 133.654297,149.471878 
	C125.549026,151.740936 115.484138,147.652603 109.768021,139.771362 
	C108.776665,138.404495 107.778557,137.042511 106.783569,135.678284 
	C106.283638,135.875412 105.783714,136.072540 105.283791,136.269669 
	C105.534096,137.637558 105.322296,139.416382 106.112099,140.304504 
	C110.249603,144.957153 113.908722,150.625916 119.072960,153.670776 
	C139.539978,165.738251 176.303101,155.451355 177.860382,120.557510 
	C178.839798,98.612068 164.446823,80.932930 143.520325,81.212318 
	C134.592377,81.331505 131.505737,78.328217 128.910721,71.598358 
	C128.506088,70.548988 127.723389,69.639496 127.081230,68.688477 
	C115.473366,51.497734 96.521759,45.336071 78.657600,53.527153 
	C68.543961,58.164463 61.531132,66.108261 56.724789,75.920509 
	C55.125401,79.185684 53.216751,80.411911 49.670773,80.752869 
	C36.039368,82.063553 25.635796,88.749825 18.252607,100.321564 
	C7.104547,117.794014 9.846433,156.178940 39.994343,169.079758 
	C53.253643,174.753632 67.188583,177.530640 81.359543,176.882111 
	C102.937271,175.894638 124.452118,173.533325 146.625107,171.795700 
	C147.418777,171.536926 148.212433,171.278137 149.676910,171.111465 
	C150.116684,171.023560 150.556442,170.935654 151.837433,170.926590 
z"/>
<path fill="#26359C" opacity="1.000000" stroke="none" 
	d="
M145.993668,171.755447 
	C124.452118,173.533325 102.937271,175.894638 81.359543,176.882111 
	C67.188583,177.530640 53.253643,174.753632 39.994343,169.079758 
	C9.846433,156.178940 7.104547,117.794014 18.252607,100.321564 
	C25.635796,88.749825 36.039368,82.063553 49.670773,80.752869 
	C53.216751,80.411911 55.125401,79.185684 56.724789,75.920509 
	C61.531132,66.108261 68.543961,58.164463 78.657600,53.527153 
	C96.521759,45.336071 115.473366,51.497734 127.081230,68.688477 
	C127.723389,69.639496 128.506088,70.548988 128.910721,71.598358 
	C131.505737,78.328217 134.592377,81.331505 143.520325,81.212318 
	C164.446823,80.932930 178.839798,98.612068 177.860382,120.557510 
	C176.303101,155.451355 139.539978,165.738251 119.072960,153.670776 
	C113.908722,150.625916 110.249603,144.957153 106.112099,140.304504 
	C105.322296,139.416382 105.534096,137.637558 105.283791,136.269669 
	C105.783714,136.072540 106.283638,135.875412 106.783569,135.678284 
	C107.778557,137.042511 108.776665,138.404495 109.768021,139.771362 
	C115.484138,147.652603 125.549026,151.740936 133.654297,149.471878 
	C149.439621,145.052811 156.503815,137.838043 156.956985,125.496101 
	C157.072861,122.340446 157.164841,119.122696 156.702591,116.017616 
	C154.677979,102.417526 145.797379,94.580544 131.927399,93.959373 
	C129.109573,93.833176 126.281258,93.941109 123.401131,93.941109 
	C118.844475,79.329025 110.689087,68.029716 94.175629,67.590263 
	C79.960533,67.211967 72.110657,75.371681 66.302208,93.562325 
	C63.932823,93.902725 61.449265,94.094353 59.042751,94.631287 
	C38.965027,99.110977 29.336508,114.199242 33.380733,134.251556 
	C36.933010,151.864655 47.346279,163.414917 64.546806,167.551590 
	C76.547318,170.437653 89.048820,171.328445 101.369766,172.730682 
	C104.340080,173.068726 107.468399,171.631424 110.546997,171.481415 
	C118.077309,171.114487 125.632477,171.207504 133.154465,170.741302 
	C136.848526,170.512344 140.491074,169.451950 144.664307,169.094528 
	C145.445663,170.199310 145.719666,170.977371 145.993668,171.755447 
z"/>
<path fill="#283AA0" opacity="1.000000" stroke="none" 
	d="
M146.309387,171.775574 
	C145.719666,170.977371 145.445663,170.199310 145.056488,169.129608 
	C157.571640,167.101456 170.201981,165.364944 182.832336,163.628433 
	C182.931488,164.232773 183.030655,164.837112 183.129822,165.441467 
	C172.699020,167.269836 162.268234,169.098206 151.370026,170.597656 
	C150.561020,169.987610 150.219452,169.706467 149.877884,169.425323 
	C149.587296,169.956665 149.296692,170.488022 149.006104,171.019363 
	C148.212433,171.278137 147.418777,171.536926 146.309387,171.775574 
z"/>
<path fill="#26359C" opacity="1.000000" stroke="none" 
	d="
M149.341507,171.065414 
	C149.296692,170.488022 149.587296,169.956665 149.877884,169.425323 
	C150.219452,169.706467 150.561020,169.987610 150.949402,170.558228 
	C150.556442,170.935654 150.116684,171.023560 149.341507,171.065414 
z"/>
</svg>