<svg version="1.1" id="Layer_1" xmlns="http://www.w3.org/2000/svg" xmlns:xlink="http://www.w3.org/1999/xlink" x="0px" y="0px"
	 width="100%" viewBox="0 0 272 272" enable-background="new 0 0 272 272" xml:space="preserve">
<path fill="#000000" opacity="1.000000" stroke="none" 
	d="
M150.160019,270.335999 
	C85.983093,274.987885 30.199104,232.261612 15.399555,172.927582 
	C-1.572123,104.885094 37.107574,37.031544 103.503212,17.032042 
	C166.090286,-1.820257 230.921768,27.475149 258.858429,86.632690 
	C265.726257,101.175735 269.629669,116.592827 270.372864,132.785797 
	C272.673859,182.923172 252.567596,221.898651 211.423126,249.960953 
	C193.239349,262.363068 172.722427,269.009888 150.160019,270.335999 
M67.774734,240.696228 
	C85.615135,253.747482 105.410866,261.600372 127.486198,263.966248 
	C157.320648,267.163757 184.849976,260.664886 209.675644,244.110062 
	C261.123505,209.802338 279.087860,144.037933 252.810440,87.943741 
	C223.022064,24.354792 143.280380,-2.207570 82.387535,32.430370 
	C35.787148,58.938271 13.794186,99.985031 18.364813,153.792343 
	C21.417276,189.727188 38.736801,218.323441 67.774734,240.696228 
z"/>
<path fill="#000000" opacity="1.000000" stroke="none" 
	d="
M186.967621,214.041199 
	C182.212296,211.862671 179.601822,202.988205 182.651001,199.116379 
	C184.607162,196.632477 186.657501,194.213974 188.792603,191.882446 
	C190.598175,189.910751 190.772171,188.296463 188.555389,186.465439 
	C174.579346,174.921600 160.649368,163.321991 146.595535,151.650589 
	C135.818268,160.901199 125.318481,169.849762 114.904579,178.897202 
	C112.293861,181.165344 109.500656,182.765411 106.005554,182.914749 
	C103.812607,183.008484 101.720467,182.860199 101.618675,179.837158 
	C97.731804,182.048401 96.088028,185.188934 95.200233,189.180054 
	C93.586540,196.434387 91.569916,204.764603 83.064590,205.757217 
	C74.237282,206.787384 68.186409,211.686142 61.746227,216.409988 
	C57.955204,219.190689 54.901527,217.911270 51.708225,215.852173 
	C50.614769,215.147110 49.485439,214.114136 50.416641,212.547577 
	C51.135460,211.338333 52.339737,210.299301 53.705074,210.834351 
	C56.650852,211.988708 58.024834,211.676804 58.969299,208.159821 
	C60.036674,204.185165 71.979424,197.952393 76.065231,198.516495 
	C80.589111,199.141098 84.192146,196.371857 84.726753,191.676025 
	C85.064026,188.713455 85.141449,185.721313 85.362373,182.328720 
	C83.493584,181.989502 81.594826,181.488983 79.667160,181.321945 
	C71.360489,180.602112 69.031105,182.704285 69.437813,191.045456 
	C69.576172,193.883133 68.962906,195.908768 66.526619,197.319916 
	C62.160858,199.848602 59.528851,205.591263 52.936340,204.123886 
	C51.232307,203.744598 51.441288,206.285614 51.250679,207.718613 
	C51.025074,209.414795 49.919838,210.625275 48.361305,210.701675 
	C46.516285,210.792099 46.048164,209.076630 45.768364,207.572754 
	C45.216465,204.606461 45.546928,202.013382 48.477001,200.215103 
	C50.598000,198.913391 52.452164,197.184372 54.529461,195.802444 
	C59.099316,192.762329 62.287430,189.241547 62.937351,183.204880 
	C63.596077,177.086441 69.133423,173.586548 77.062973,172.758942 
	C78.384964,172.620972 79.726448,172.610809 81.057610,172.630447 
	C85.373909,172.694138 88.533279,171.426819 89.963860,166.745636 
	C91.346092,162.222687 95.297249,159.620697 98.941055,156.978775 
	C107.030769,151.113358 115.179527,145.329376 123.302017,139.509140 
	C124.512474,138.641785 125.830177,137.876099 126.552979,136.164368 
	C124.863144,132.662918 121.352867,130.814560 118.534988,128.385681 
	C110.968414,121.863632 103.171959,115.608925 95.499184,109.209213 
	C91.549767,105.915077 91.326767,103.543335 94.730431,99.594528 
	C97.399956,96.497429 100.137222,95.125496 104.015106,98.448174 
	C114.256256,107.223083 124.878830,115.554024 135.082657,124.370613 
	C138.267822,127.122757 140.394424,127.601166 143.999878,124.954659 
	C156.081024,116.086784 168.435623,107.589325 180.755707,99.051315 
	C182.724518,97.686897 184.964844,94.737610 187.455139,98.295456 
	C190.044830,101.995338 186.039825,102.931709 184.299286,104.259277 
	C173.708359,112.337257 162.933685,120.174149 152.233734,128.109543 
	C150.255814,129.576431 148.128006,130.901138 146.761185,133.077103 
	C148.495026,136.250427 150.442764,136.388733 153.161942,134.222305 
	C163.969986,125.611275 174.878479,117.126320 185.746964,108.591125 
	C187.055786,107.563271 188.355774,106.523788 189.645340,105.471886 
	C191.673264,103.817696 193.307983,104.429115 194.714996,106.336067 
	C196.195938,108.343208 195.093201,109.591324 193.540512,110.931679 
	C182.320541,120.617249 171.155106,130.365952 159.949722,140.068481 
	C159.206131,140.712341 158.276352,141.141205 156.693176,142.134262 
	C171.590103,154.516296 185.590729,166.153351 200.306610,178.384918 
	C205.988312,168.876785 213.051865,163.505554 223.755219,169.759491 
	C211.405334,184.951965 199.186478,199.496582 186.967621,214.041199 
M111.067505,167.645493 
	C120.264374,160.306702 129.461243,152.967926 138.639389,145.644073 
	C136.319931,142.072189 134.044968,141.832321 130.810028,144.487564 
	C124.000137,150.077148 116.883606,155.284576 110.349831,161.226349 
	C107.960503,163.399200 106.664536,165.961746 106.487572,169.034912 
	C106.337387,171.643021 106.146873,174.200043 104.998314,176.645279 
	C108.067047,174.471451 106.850601,169.786545 111.067505,167.645493 
M97.573586,170.457901 
	C95.288086,171.057968 93.779335,172.180176 95.523415,174.610580 
	C96.503723,175.976639 98.244858,176.268051 99.470848,175.092331 
	C101.589554,173.060501 100.318970,171.608322 97.573586,170.457901 
z"/>
<path fill="#000000" opacity="1.000000" stroke="none" 
	d="
M129.041229,214.608292 
	C126.840881,206.607040 128.982452,199.031036 134.612656,194.879211 
	C135.506607,199.327652 136.336777,203.631470 137.247467,207.918182 
	C137.710266,210.096725 138.478394,212.372055 141.044388,212.580566 
	C143.728500,212.798660 145.156128,210.638992 146.289200,208.575302 
	C148.581528,204.400162 147.607529,200.163849 146.176056,196.000549 
	C145.534286,194.134033 144.668457,192.344559 143.944885,190.617020 
	C145.025726,189.266800 145.874451,190.100586 146.668030,190.578461 
	C157.215591,196.930130 161.370712,208.042206 157.664337,219.586472 
	C156.851959,222.116806 154.843613,225.141815 158.598679,227.001099 
	C162.238174,228.803162 164.558121,226.654053 166.425293,223.750381 
	C167.015991,222.831802 167.143036,221.475784 168.593414,221.293350 
	C170.893250,231.321579 163.429184,244.115829 152.563538,248.826401 
	C134.673294,256.582306 114.557961,244.611481 112.844765,225.189362 
	C112.231041,218.231674 115.196892,213.501099 121.193146,211.922836 
	C121.193146,214.341080 121.106331,216.755249 121.213951,219.160690 
	C121.366768,222.576096 122.731354,225.327682 126.639259,224.635025 
	C130.743515,223.907547 131.273987,220.894363 129.998795,217.350266 
	C129.717224,216.567734 129.456985,215.777512 129.041229,214.608292 
z"/>
<path fill="#000000" opacity="1.000000" stroke="none" 
	d="
M186.908813,214.416428 
	C199.186478,199.496582 211.405334,184.951965 223.859207,170.156952 
	C224.978622,169.408615 225.963455,168.853668 226.869827,169.594116 
	C231.620392,173.475021 236.390320,177.337936 241.006927,181.374771 
	C243.334641,183.410126 241.075089,185.018234 239.927200,186.405472 
	C230.937927,197.269424 221.873291,208.071106 212.815140,218.877945 
	C209.739517,222.547333 206.615891,226.176498 202.979599,230.452698 
	C197.510986,224.928574 190.043976,222.226730 186.908813,214.416428 
z"/>
<path fill="#000000" opacity="1.000000" stroke="none" 
	d="
M103.873810,81.967041 
	C101.594879,84.429771 99.306778,84.382042 96.814514,83.157021 
	C86.326309,78.001709 76.764198,71.390205 67.496964,64.347992 
	C64.333412,61.943996 64.478188,58.950905 67.256783,56.246731 
	C70.349266,53.237064 73.463036,50.224686 76.797401,47.494183 
	C81.258369,43.841103 86.941078,44.385971 90.337471,49.087418 
	C95.979683,56.897614 101.026886,65.112503 105.747910,73.526123 
	C107.613441,76.850822 107.262215,79.483917 103.873810,81.967041 
z"/>
<path fill="#000000" opacity="1.000000" stroke="none" 
	d="
M192.564331,49.504723 
	C197.807098,44.097141 202.389084,43.746155 207.587051,48.277130 
	C210.469284,50.789528 213.190704,53.491432 215.915451,56.178062 
	C218.839600,59.061325 219.057693,61.824356 215.535477,64.536819 
	C206.815384,71.252235 197.560425,77.130615 187.973480,82.513611 
	C184.262436,84.597313 181.303146,84.008614 178.142792,81.036247 
	C174.873825,77.961731 176.421829,75.335274 178.067184,72.641090 
	C182.746658,64.978714 187.568817,57.403465 192.564331,49.504723 
z"/>
<path fill="#000000" opacity="1.000000" stroke="none" 
	d="
M80.397850,84.630875 
	C81.941719,86.607834 83.238022,88.332283 84.571823,90.027222 
	C86.445465,92.408165 87.558464,94.699333 85.177452,97.556587 
	C82.856606,100.341621 80.606430,101.894928 76.648788,100.575050 
	C65.718300,96.929718 55.590164,91.609024 45.493790,86.216866 
	C41.672459,84.176010 41.848698,80.877510 44.114826,77.775513 
	C46.558678,74.430252 49.203545,71.202263 52.026733,68.170853 
	C55.938812,63.970257 61.637306,63.770451 65.650978,67.959091 
	C70.699013,73.227188 75.346626,78.878975 80.397850,84.630875 
z"/>
<path fill="#000000" opacity="1.000000" stroke="none" 
	d="
M199.762680,99.369492 
	C196.099182,96.096451 196.240173,93.194595 198.981873,89.603027 
	C204.738647,82.061790 211.082077,75.042290 217.475464,68.073158 
	C221.394821,63.800835 227.789581,64.078674 231.548828,68.371078 
	C234.173080,71.367546 236.768143,74.423531 239.033127,77.690788 
	C241.144821,80.736908 241.589279,84.071609 237.709625,86.184395 
	C227.648315,91.663605 217.483414,96.942337 206.521896,100.482765 
	C204.170898,101.242104 201.990662,101.586510 199.762680,99.369492 
z"/>
<path fill="#000000" opacity="1.000000" stroke="none" 
	d="
M125.878120,51.375191 
	C126.838326,54.787609 127.492371,57.881214 128.480774,60.864021 
	C129.465103,63.834465 129.608200,66.272453 126.534981,68.197182 
	C123.477631,70.111961 120.639046,71.115509 117.449875,68.472092 
	C108.713821,61.231026 100.946121,53.037971 93.735710,44.318134 
	C91.387199,41.477997 92.119270,38.551796 95.112923,36.628567 
	C99.161263,34.027775 103.304153,31.511467 107.630615,29.423326 
	C112.266487,27.185862 118.004700,29.697054 119.886848,34.587456 
	C121.972397,40.006382 123.786301,45.529865 125.878120,51.375191 
z"/>
<path fill="#000000" opacity="1.000000" stroke="none" 
	d="
M130.593857,44.273476 
	C129.550629,40.522385 128.432251,37.201988 127.674744,33.801208 
	C126.475998,28.419519 129.701385,23.545631 135.146637,23.041731 
	C139.932831,22.598818 144.800034,22.696922 149.609985,22.955578 
	C153.167328,23.146875 155.646408,25.032913 155.314743,29.059729 
	C154.397888,40.190460 152.220947,51.077816 148.756393,61.699867 
	C147.646805,65.101753 144.897110,65.342873 141.898026,65.332748 
	C138.922791,65.322701 136.697083,64.439171 135.768494,61.359085 
	C134.089600,55.790276 132.378326,50.231232 130.593857,44.273476 
z"/>
<path fill="#000000" opacity="1.000000" stroke="none" 
	d="
M171.958862,62.969452 
	C170.006287,64.800491 168.330536,66.409668 166.599518,67.957001 
	C163.374481,70.839828 160.259705,70.473412 156.684692,68.206078 
	C153.261398,66.034973 153.765442,63.340496 154.720490,60.424408 
	C157.557327,51.762589 160.332458,43.074253 163.460754,34.516563 
	C165.335907,29.386938 171.324524,27.176746 176.152603,29.627817 
	C180.140152,31.652185 184.011383,33.939556 187.780853,36.350101 
	C191.564377,38.769638 191.874451,41.369286 189.011459,45.053452 
	C184.002869,51.498650 177.848160,56.865627 171.958862,62.969452 
z"/>
<path fill="#000000" opacity="1.000000" stroke="none" 
	d="
M64.891006,118.382332 
	C54.602165,118.491348 44.831642,118.090347 35.152241,116.369545 
	C30.313457,115.509308 28.811394,113.623985 29.810598,108.819626 
	C30.652719,104.770546 31.775953,100.747398 33.168571,96.853622 
	C34.892876,92.032417 40.783169,90.031647 46.198547,92.589355 
	C55.055370,96.772484 63.906956,100.993660 72.332130,106.028770 
	C74.867294,107.543839 76.933548,109.048912 75.817139,112.730225 
	C74.705757,116.394958 72.935287,118.620682 68.863174,118.375656 
	C67.704559,118.305946 66.537552,118.375992 64.891006,118.382332 
z"/>
<path fill="#000000" opacity="1.000000" stroke="none" 
	d="
M207.966248,113.967590 
	C206.503693,109.725357 208.120712,107.369186 211.575470,105.628716 
	C219.722260,101.524422 227.706894,97.091515 235.915070,93.117775 
	C243.468353,89.461082 248.715759,91.914749 251.145248,99.943733 
	C252.149567,103.262779 252.861816,106.675865 253.590012,110.071251 
	C254.337830,113.558121 252.487885,115.586273 249.322784,116.155586 
	C237.359146,118.307549 225.267715,118.636658 213.145157,118.320259 
	C210.446060,118.249802 208.861649,116.821732 207.966248,113.967590 
z"/>
<path fill="#000000" opacity="1.000000" stroke="none" 
	d="
M37.144131,147.318527 
	C29.253094,148.828110 27.111959,147.165939 26.736204,139.466919 
	C26.606453,136.808395 26.616230,134.138580 26.674334,131.476349 
	C26.789618,126.194313 30.907547,122.178558 36.031960,122.937553 
	C45.555576,124.348129 55.018162,126.169273 64.509476,127.800179 
	C67.871735,128.377914 69.688019,130.158295 70.003639,133.723663 
	C70.343674,137.564850 68.081032,139.203018 65.075806,140.225082 
	C56.090305,143.281036 46.804482,145.198914 37.144131,147.318527 
z"/>
<path fill="#000000" opacity="1.000000" stroke="none" 
	d="
M255.814789,133.123718 
	C255.518570,136.847137 255.444443,140.188507 254.935928,143.462418 
	C254.308762,147.500137 252.312531,149.580032 247.661484,148.577255 
	C238.057190,146.506577 228.689041,143.653122 219.358551,140.658386 
	C215.830658,139.526077 213.246902,137.589828 213.665710,133.085770 
	C214.077835,128.653381 217.395447,128.324982 220.400726,127.852814 
	C228.924881,126.513542 237.477737,125.316544 246.051453,124.348305 
	C251.240356,123.762321 254.745361,126.987801 255.814789,133.123718 
z"/>
</svg>