<svg version="1.1" id="Layer_1" xmlns="http://www.w3.org/2000/svg" xmlns:xlink="http://www.w3.org/1999/xlink" x="0px" y="0px"
	 width="100%" viewBox="0 0 351 365" enable-background="new 0 0 351 365" xml:space="preserve">
<path fill="#000000" opacity="1.000000" stroke="none" 
	d="
M193.000000,0.999999 
	C245.962875,1.000000 298.925751,1.000000 351.944336,1.000000 
	C351.944336,122.544319 351.944336,244.088669 351.944336,366.000000 
	C318.646667,366.000000 285.291992,366.000000 251.137466,365.761871 
	C251.215881,364.534332 252.158478,363.594269 252.961990,362.547516 
	C258.295410,355.599335 264.003265,348.864288 266.454468,339.850616 
	C267.858246,333.450195 268.787109,327.203888 270.104309,321.040619 
	C270.415161,319.586121 272.033112,318.410980 273.368042,316.970398 
	C276.735291,314.415314 280.105804,312.302826 282.760345,309.509796 
	C287.101562,304.942139 290.976654,299.931427 295.363464,294.970154 
	C296.484741,294.010864 297.650146,293.330811 298.039673,292.344421 
	C300.808807,285.332458 306.345032,284.396698 313.152191,283.707703 
	C320.673584,282.946472 328.137299,280.364288 334.479370,275.019531 
	C337.063782,273.162445 341.087189,272.355927 339.896240,268.341248 
	C338.157196,262.478912 335.880096,256.776123 333.804688,250.657410 
	C331.824890,247.348038 330.382202,243.809021 327.815155,241.544617 
	C322.369629,236.741089 318.230286,231.831848 320.906616,223.568878 
	C320.651978,218.883255 320.682495,214.567001 319.907196,210.400696 
	C318.878754,204.874207 317.221039,199.464813 315.898071,193.623627 
	C312.935516,183.820908 308.926483,174.891129 302.805206,166.667389 
	C295.894348,159.538040 289.011261,152.745712 281.964722,145.637939 
	C279.542084,144.047592 277.252625,142.823105 275.028351,141.489868 
	C255.020065,129.497025 233.585098,125.104149 210.664352,130.096512 
	C199.109116,132.613358 188.392365,137.254501 179.585236,146.089203 
	C174.551666,152.038986 169.827606,157.848511 164.829071,163.827820 
	C162.091888,170.333191 159.629196,176.668777 156.980072,183.370667 
	C156.307007,185.907593 155.417877,188.076935 155.411057,190.249069 
	C155.392380,196.204254 155.744614,202.160599 155.972748,208.531906 
	C156.924713,217.947495 159.944214,226.090088 166.023468,233.351959 
	C173.827881,244.651474 184.606110,251.001694 197.391800,253.904205 
	C209.831772,256.728241 221.730682,255.017960 232.496460,247.783554 
	C234.845306,246.205154 236.773056,244.052582 234.953094,240.894302 
	C233.135101,237.739426 230.683426,239.061752 228.113235,239.924011 
	C224.452728,241.152100 220.714752,242.530624 216.917862,242.900543 
	C204.700943,244.090790 194.582764,239.391006 185.907471,230.571259 
	C179.625931,223.719116 176.533844,215.871445 175.905426,206.559631 
	C175.708008,197.849945 178.305695,190.308640 181.987000,182.685608 
	C187.672485,176.778885 193.204391,171.189514 199.022461,165.396301 
	C209.597153,159.324692 220.638794,156.924896 232.105316,160.101562 
	C240.261230,162.361069 248.019089,166.057327 256.093719,169.420898 
	C265.435944,176.272018 271.768127,185.156830 276.934021,195.434906 
	C279.852966,204.991791 281.751862,214.284561 280.529938,224.186157 
	C277.997681,232.648499 275.808685,240.885620 273.354675,249.392059 
	C268.939911,258.550171 263.237915,266.292603 255.638794,272.999756 
	C248.061935,277.805664 241.123062,283.132355 233.432083,286.939850 
	C227.407440,289.922394 220.451355,291.023560 213.446671,292.979736 
	C203.005310,292.306763 193.026382,291.614685 182.846344,290.585938 
	C165.119156,287.075043 150.424118,278.368347 136.979019,266.634277 
	C130.600311,258.856445 124.358543,251.395706 117.963669,243.612762 
	C114.818085,236.861740 111.825592,230.432907 108.775085,223.625000 
	C107.424950,217.500000 106.132828,211.754074 104.755432,205.595139 
	C104.391106,197.789673 104.112053,190.397217 103.905701,182.582642 
	C105.929924,172.774948 107.881447,163.389374 109.913437,153.627350 
	C114.367973,143.847809 118.742050,134.444717 123.419739,124.880081 
	C132.476639,110.246193 144.461899,99.105156 159.385193,91.349480 
	C170.978745,85.324287 183.413651,81.835823 196.420212,79.810257 
	C208.917297,77.864014 221.362473,77.176796 233.739319,79.177734 
	C249.207397,81.678406 263.980499,86.541832 277.509155,94.810951 
	C289.318512,102.029182 300.154816,110.332611 309.092407,121.415817 
	C313.446899,127.161217 317.664459,132.601395 321.940430,138.400970 
	C325.054260,144.840652 328.109741,150.920944 331.220734,157.365707 
	C333.203552,163.518295 334.952759,169.376755 337.190765,175.042145 
	C337.711853,176.361298 339.832001,177.579285 341.340759,177.751007 
	C342.080566,177.835220 343.882263,175.406174 343.865784,174.131866 
	C343.796265,168.751343 343.223480,163.377319 342.906525,157.581711 
	C341.335602,150.073456 339.692871,142.984421 338.028931,135.504761 
	C335.949341,129.743820 333.890991,124.373497 331.792236,118.652267 
	C324.859558,104.826920 316.619873,92.315704 306.068085,81.355148 
	C304.718262,79.953026 303.824860,77.108109 304.193573,75.219200 
	C306.444855,63.685482 303.210846,53.245583 298.454254,43.047863 
	C298.056885,42.195927 296.970398,41.159260 296.135071,41.094154 
	C284.767853,40.208233 273.829529,42.111294 263.942352,47.813049 
	C260.767761,49.643776 258.633728,49.470459 255.498367,48.307606 
	C248.969604,45.886181 242.335083,43.201035 235.517609,42.253708 
	C227.955750,41.202946 223.314957,38.830845 220.205917,31.082993 
	C215.280563,18.808783 205.429077,10.177163 194.356522,3.084336 
	C193.720352,2.676805 193.443878,1.707729 193.000000,0.999999 
z"/>
<path fill="#000000" opacity="1.000000" stroke="none" 
	d="
M244.000000,366.000000 
	C163.044540,366.000000 82.089066,366.000000 1.066800,366.000000 
	C1.066800,244.444794 1.066800,122.889534 1.066800,1.000000 
	C63.353828,1.000000 125.708260,1.000000 188.858185,1.252579 
	C189.459763,1.775782 189.321030,2.124653 189.064072,2.305819 
	C174.705765,12.428727 163.504837,24.986044 157.937164,42.036228 
	C157.506317,43.355606 155.779526,44.672062 154.363770,45.183563 
	C142.237289,49.564751 130.376236,54.429211 119.635323,61.743725 
	C118.427132,62.566486 116.239273,62.692944 114.762650,62.261978 
	C102.787605,58.766899 90.749672,55.734745 78.168602,58.044888 
	C68.264442,59.863491 58.393517,61.923973 48.621346,64.336754 
	C47.103191,64.711594 45.355125,67.457573 45.164284,69.260628 
	C44.674393,73.888985 44.895817,78.606476 45.019657,83.283394 
	C45.411152,98.068665 49.347485,111.925850 56.209343,125.351654 
	C57.954887,128.426453 59.801743,131.076859 61.298946,133.911926 
	C62.064392,135.361359 62.845974,137.290009 62.509708,138.745499 
	C61.320808,143.891525 59.652534,148.926773 58.096985,154.413071 
	C57.016300,160.515976 56.172474,166.247849 54.896889,171.881958 
	C54.481350,173.717331 53.222301,175.592651 51.839939,176.919174 
	C50.151936,178.538986 47.927868,179.600143 45.620121,181.048859 
	C35.763668,187.622314 27.703562,195.551071 21.004616,205.331390 
	C17.533003,211.749252 14.213361,217.849579 10.572783,224.132355 
	C7.907117,228.242249 9.837552,230.824997 12.810260,233.370956 
	C17.625668,237.495117 22.245510,241.847595 27.107944,246.412003 
	C39.857033,255.244141 53.209064,262.162933 68.377739,264.558197 
	C71.727058,265.087067 73.417305,266.523804 74.935715,269.404114 
	C80.959351,277.519440 86.920357,285.278809 93.052399,293.388092 
	C93.195213,295.373383 93.354866,297.038055 93.105057,298.638824 
	C92.199951,304.438843 91.157440,310.217407 90.096481,316.461487 
	C90.740471,323.281403 91.454750,329.643921 92.098206,336.416351 
	C92.353531,338.575104 92.630196,340.334961 93.014122,342.071045 
	C95.012436,351.107147 95.023232,351.161377 104.061264,350.956024 
	C106.157646,350.908386 108.230820,350.178558 110.333771,350.026123 
	C124.346771,349.010498 137.112701,344.303955 149.377808,336.968140 
	C152.224136,335.878967 155.155518,333.583984 157.212036,334.201660 
	C173.797455,339.183319 190.783295,340.689972 208.084076,341.419006 
	C209.303574,343.143433 210.247070,344.695343 211.495712,345.941498 
	C219.542358,353.972168 228.692795,360.171387 239.863037,363.117493 
	C241.389267,363.520020 242.628113,365.012268 244.000000,366.000000 
z"/>
<path fill="#F05A28" opacity="1.000000" stroke="none" 
	d="
M56.165913,125.003708 
	C49.347485,111.925850 45.411152,98.068665 45.019657,83.283394 
	C44.895817,78.606476 44.674393,73.888985 45.164284,69.260628 
	C45.355125,67.457573 47.103191,64.711594 48.621346,64.336754 
	C58.393517,61.923973 68.264442,59.863491 78.168602,58.044888 
	C90.749672,55.734745 102.787605,58.766899 114.762650,62.261978 
	C116.239273,62.692944 118.427132,62.566486 119.635323,61.743725 
	C130.376236,54.429211 142.237289,49.564751 154.363770,45.183563 
	C155.779526,44.672062 157.506317,43.355606 157.937164,42.036228 
	C163.504837,24.986044 174.705765,12.428727 189.064072,2.305819 
	C189.321030,2.124653 189.459763,1.775782 189.326843,1.252579 
	C190.066666,1.000000 191.133347,1.000000 192.600006,0.999999 
	C193.443878,1.707729 193.720352,2.676805 194.356522,3.084336 
	C205.429077,10.177163 215.280563,18.808783 220.205917,31.082993 
	C223.314957,38.830845 227.955750,41.202946 235.517609,42.253708 
	C242.335083,43.201035 248.969604,45.886181 255.498367,48.307606 
	C258.633728,49.470459 260.767761,49.643776 263.942352,47.813049 
	C273.829529,42.111294 284.767853,40.208233 296.135071,41.094154 
	C296.970398,41.159260 298.056885,42.195927 298.454254,43.047863 
	C303.210846,53.245583 306.444855,63.685482 304.193573,75.219200 
	C303.824860,77.108109 304.718262,79.953026 306.068085,81.355148 
	C316.619873,92.315704 324.859558,104.826920 331.334412,118.651550 
	C325.318146,119.002289 319.711639,118.838707 314.125000,119.100105 
	C312.374298,119.182030 310.677155,120.408188 308.955475,121.110588 
	C300.154816,110.332611 289.318512,102.029182 277.509155,94.810951 
	C263.980499,86.541832 249.207397,81.678406 233.739319,79.177734 
	C221.362473,77.176796 208.917297,77.864014 196.420212,79.810257 
	C183.413651,81.835823 170.978745,85.324287 159.385193,91.349480 
	C144.461899,99.105156 132.476639,110.246193 122.943680,124.870682 
	C100.164642,125.016441 78.165276,125.010078 56.165913,125.003708 
z"/>
<path fill="#FBC50B" opacity="1.000000" stroke="none" 
	d="
M244.437500,366.000000 
	C242.628113,365.012268 241.389267,363.520020 239.863037,363.117493 
	C228.692795,360.171387 219.542358,353.972168 211.495712,345.941498 
	C210.247070,344.695343 209.303574,343.143433 208.421570,341.170410 
	C210.246674,340.405334 211.868866,340.029755 213.491699,340.026886 
	C231.034866,339.995880 248.578156,340.023499 266.121399,340.035095 
	C264.003265,348.864288 258.295410,355.599335 252.961990,362.547516 
	C252.158478,363.594269 251.215881,364.534332 250.668808,365.761871 
	C248.958328,366.000000 246.916672,366.000000 244.437500,366.000000 
z"/>
<path fill="#F8B011" opacity="1.000000" stroke="none" 
	d="
M90.166771,316.004089 
	C91.157440,310.217407 92.199951,304.438843 93.105057,298.638824 
	C93.354866,297.038055 93.195213,295.373383 93.528580,293.379578 
	C121.557205,293.014008 149.280899,293.050049 177.003708,292.910370 
	C179.021591,292.900208 181.033035,291.615021 183.047455,290.922607 
	C193.026382,291.614685 203.005310,292.306763 213.836151,293.145782 
	C216.981903,293.528473 219.275284,293.963776 221.569641,293.969025 
	C243.990799,294.020416 266.412231,293.971008 288.833252,294.048248 
	C290.906128,294.055389 292.976746,294.738403 295.048401,295.107605 
	C290.976654,299.931427 287.101562,304.942139 282.760345,309.509796 
	C280.105804,312.302826 276.735291,314.415314 273.030945,316.721252 
	C270.410339,316.406036 268.445251,316.026672 266.479950,316.025665 
	C207.708893,315.995483 148.937836,316.002747 90.166771,316.004089 
z"/>
<path fill="#FABB0E" opacity="1.000000" stroke="none" 
	d="
M90.096481,316.461487 
	C148.937836,316.002747 207.708893,315.995483 266.479950,316.025665 
	C268.445251,316.026672 270.410339,316.406036 272.712646,316.858185 
	C272.033112,318.410980 270.415161,319.586121 270.104309,321.040619 
	C268.787109,327.203888 267.858246,333.450195 266.454468,339.850616 
	C248.578156,340.023499 231.034866,339.995880 213.491699,340.026886 
	C211.868866,340.029755 210.246674,340.405334 208.286682,340.856476 
	C190.783295,340.689972 173.797455,339.183319 157.212036,334.201660 
	C155.155518,333.583984 152.224136,335.878967 149.039825,336.719269 
	C146.421097,336.410034 144.461166,336.033905 142.500198,336.028595 
	C125.723244,335.983124 108.946106,336.004852 92.169022,336.006470 
	C91.454750,329.643921 90.740471,323.281403 90.096481,316.461487 
z"/>
<path fill="#F26E23" opacity="1.000000" stroke="none" 
	d="
M282.128143,145.953384 
	C289.011261,152.745712 295.894348,159.538040 302.395813,166.698151 
	C299.051727,167.377289 296.091797,167.925964 293.126373,167.957092 
	C282.645142,168.067139 272.161469,167.945084 261.680115,168.050278 
	C259.768250,168.069458 257.862946,168.741623 255.954605,169.112381 
	C248.019089,166.057327 240.261230,162.361069 232.105316,160.101562 
	C220.638794,156.924896 209.597153,159.324692 198.608063,165.139404 
	C195.669983,164.724152 193.439209,164.103882 191.193817,164.045456 
	C182.499603,163.819214 173.800705,163.771973 165.103561,163.658051 
	C169.827606,157.848511 174.551666,152.038986 179.975525,146.256012 
	C182.968582,146.521713 185.261459,146.964722 187.555130,146.968872 
	C214.462753,147.017380 241.370682,147.048981 268.278076,146.952988 
	C272.895874,146.936523 277.511505,146.302246 282.128143,145.953384 
z"/>
<path fill="#F69A17" opacity="1.000000" stroke="none" 
	d="
M74.873085,269.048126 
	C73.417305,266.523804 71.727058,265.087067 68.377739,264.558197 
	C53.209064,262.162933 39.857033,255.244141 27.409309,246.168152 
	C30.797079,245.077408 34.041050,244.088898 37.290310,244.071167 
	C64.231911,243.924225 91.174484,243.956741 118.116760,243.934952 
	C124.358543,251.395706 130.600311,258.856445 136.587463,266.799744 
	C134.208008,267.521515 132.083893,267.960449 129.958237,267.968140 
	C113.865433,268.026428 97.772087,267.959198 81.679535,268.046844 
	C79.408974,268.059235 77.141815,268.698822 74.873085,269.048126 
z"/>
<path fill="#F8A614" opacity="1.000000" stroke="none" 
	d="
M74.935715,269.404114 
	C77.141815,268.698822 79.408974,268.059235 81.679535,268.046844 
	C97.772087,267.959198 113.865433,268.026428 129.958237,267.968140 
	C132.083893,267.960449 134.208008,267.521515 136.724380,267.116852 
	C150.424118,278.368347 165.119156,287.075043 182.846344,290.585968 
	C181.033035,291.615021 179.021591,292.900208 177.003708,292.910370 
	C149.280899,293.050049 121.557205,293.014008 93.357544,293.029633 
	C86.920357,285.278809 80.959351,277.519440 74.935715,269.404114 
z"/>
<path fill="#F59119" opacity="1.000000" stroke="none" 
	d="
M117.963669,243.612762 
	C91.174484,243.956741 64.231911,243.924225 37.290310,244.071167 
	C34.041050,244.088898 30.797079,245.077408 27.249290,245.859833 
	C22.245510,241.847595 17.625668,237.495117 12.810260,233.370956 
	C9.837552,230.824997 7.907117,228.242249 10.963216,224.298859 
	C13.972394,224.521912 16.269815,224.964401 18.568068,224.968750 
	C44.529198,225.017944 70.490601,225.043457 96.451523,224.955444 
	C100.579742,224.941452 104.705956,224.336075 108.833099,224.004089 
	C111.825592,230.432907 114.818085,236.861740 117.963669,243.612762 
z"/>
<path fill="#F5891B" opacity="1.000000" stroke="none" 
	d="
M108.775085,223.625015 
	C104.705956,224.336075 100.579742,224.941452 96.451523,224.955444 
	C70.490601,225.043457 44.529198,225.017944 18.568068,224.968750 
	C16.269815,224.964401 13.972394,224.521912 11.284153,224.116425 
	C14.213361,217.849579 17.533003,211.749252 21.403553,205.415695 
	C24.422106,205.454956 26.889191,205.958298 29.357483,205.964279 
	C54.518448,206.025314 79.679604,206.005402 104.840706,206.008148 
	C106.132828,211.754074 107.424950,217.500000 108.775085,223.625015 
z"/>
<path fill="#F4801E" opacity="1.000000" stroke="none" 
	d="
M104.755432,205.595139 
	C79.679604,206.005402 54.518448,206.025314 29.357483,205.964279 
	C26.889191,205.958298 24.422106,205.454956 21.555523,205.098175 
	C27.703562,195.551071 35.763668,187.622314 45.898163,181.324341 
	C48.860432,181.969101 51.225792,182.912323 53.598392,182.930893 
	C70.342430,183.061966 87.087944,183.003036 103.832993,183.004761 
	C104.112053,190.397217 104.391106,197.789673 104.755432,205.595139 
z"/>
<path fill="#F79E16" opacity="1.000000" stroke="none" 
	d="
M255.952621,272.865723 
	C263.237915,266.292603 268.939911,258.550171 273.650970,249.748108 
	C276.280365,250.223129 278.346771,250.937943 280.416840,250.948532 
	C298.221649,251.039597 316.027100,251.003479 333.832367,251.005341 
	C335.880096,256.776123 338.157196,262.478912 339.896240,268.341248 
	C341.087189,272.355927 337.063782,273.162445 334.062256,274.934570 
	C330.823639,274.580994 328.367157,274.046234 325.909058,274.038544 
	C304.657227,273.971832 283.404938,274.031250 262.153198,273.950470 
	C260.084991,273.942596 258.019409,273.243774 255.952621,272.865723 
z"/>
<path fill="#F16725" opacity="1.000000" stroke="none" 
	d="
M56.209343,125.351654 
	C78.165276,125.010078 100.164642,125.016441 122.640060,125.032211 
	C118.742050,134.444717 114.367973,143.847809 109.455505,153.626511 
	C92.000076,154.002747 75.083031,154.003387 58.165993,154.004028 
	C59.652534,148.926773 61.320808,143.891525 62.509708,138.745499 
	C62.845974,137.290009 62.064392,135.361359 61.298946,133.911926 
	C59.801743,131.076859 57.954887,128.426453 56.209343,125.351654 
z"/>
<path fill="#F37421" opacity="1.000000" stroke="none" 
	d="
M58.096985,154.413071 
	C75.083031,154.003387 92.000076,154.002747 109.375046,154.002960 
	C107.881447,163.389374 105.929924,172.774948 103.905701,182.582642 
	C87.087944,183.003036 70.342430,183.061966 53.598392,182.930893 
	C51.225792,182.912323 48.860432,181.969101 46.213676,181.178375 
	C47.927868,179.600143 50.151936,178.538986 51.839939,176.919174 
	C53.222301,175.592651 54.481350,173.717331 54.896889,171.881958 
	C56.172474,166.247849 57.016300,160.515976 58.096985,154.413071 
z"/>
<path fill="#F8A713" opacity="1.000000" stroke="none" 
	d="
M255.638794,272.999756 
	C258.019409,273.243774 260.084991,273.942596 262.153198,273.950470 
	C283.404938,274.031250 304.657227,273.971832 325.909058,274.038544 
	C328.367157,274.046234 330.823639,274.580994 333.697968,274.956360 
	C328.137299,280.364288 320.673584,282.946472 313.152191,283.707703 
	C306.345032,284.396698 300.808807,285.332458 298.039673,292.344421 
	C297.650146,293.330811 296.484741,294.010864 295.363464,294.970154 
	C292.976746,294.738403 290.906128,294.055389 288.833252,294.048248 
	C266.412231,293.971008 243.990799,294.020416 221.569641,293.969025 
	C219.275284,293.963776 216.981903,293.528473 214.298584,293.126678 
	C220.451355,291.023560 227.407440,289.922394 233.432083,286.939850 
	C241.123062,283.132355 248.061935,277.805664 255.638794,272.999756 
z"/>
<path fill="#F16725" opacity="1.000000" stroke="none" 
	d="
M281.964722,145.637939 
	C277.511505,146.302246 272.895874,146.936523 268.278076,146.952988 
	C241.370682,147.048981 214.462753,147.017380 187.555130,146.968872 
	C185.261459,146.964722 182.968582,146.521713 180.285049,146.115753 
	C188.392365,137.254501 199.109116,132.613358 210.664352,130.096512 
	C233.585098,125.104149 255.020065,129.497025 275.028351,141.489868 
	C277.252625,142.823105 279.542084,144.047592 281.964722,145.637939 
z"/>
<path fill="#F69319" opacity="1.000000" stroke="none" 
	d="
M333.804688,250.657410 
	C316.027100,251.003479 298.221649,251.039597 280.416840,250.948532 
	C278.346771,250.937943 276.280365,250.223129 273.915955,249.478790 
	C275.808685,240.885620 277.997681,232.648499 281.007050,224.194214 
	C294.829285,223.986359 307.831177,223.995667 320.833038,224.004990 
	C318.230286,231.831848 322.369629,236.741089 327.815155,241.544617 
	C330.382202,243.809021 331.824890,247.348038 333.804688,250.657410 
z"/>
<path fill="#F4861C" opacity="1.000000" stroke="none" 
	d="
M320.906616,223.568878 
	C307.831177,223.995667 294.829285,223.986359 281.350311,223.968994 
	C281.751862,214.284561 279.852966,204.991791 277.351624,195.351028 
	C279.998260,194.579926 282.279510,194.059525 284.564972,194.040085 
	C294.987244,193.951447 305.410706,194.003571 315.833740,194.005096 
	C317.221039,199.464813 318.878754,204.874207 319.907196,210.400696 
	C320.682495,214.567001 320.651978,218.883255 320.906616,223.568878 
z"/>
<path fill="#F37920" opacity="1.000000" stroke="none" 
	d="
M315.898071,193.623627 
	C305.410706,194.003571 294.987244,193.951447 284.564972,194.040085 
	C282.279510,194.059525 279.998260,194.579926 277.297455,194.953491 
	C271.768127,185.156830 265.435944,176.272018 256.093719,169.420898 
	C257.862946,168.741623 259.768250,168.069458 261.680115,168.050278 
	C272.161469,167.945084 282.645142,168.067139 293.126373,167.957092 
	C296.091797,167.925964 299.051727,167.377289 302.423584,167.035202 
	C308.926483,174.891129 312.935516,183.820908 315.898071,193.623627 
z"/>
<path fill="#F69618" opacity="1.000000" stroke="none" 
	d="
M186.040909,230.881836 
	C194.582764,239.391006 204.700943,244.090790 216.917862,242.900543 
	C220.714752,242.530624 224.452728,241.152100 228.113235,239.924011 
	C230.683426,239.061752 233.135101,237.739426 234.953094,240.894302 
	C236.773056,244.052582 234.845306,246.205154 232.496460,247.783554 
	C221.730682,255.017960 209.831772,256.728241 197.391800,253.904205 
	C184.606110,251.001694 173.827881,244.651474 166.441071,233.268036 
	C170.127243,232.578857 173.545059,232.333023 176.952530,231.985580 
	C179.987946,231.676086 183.011902,231.254150 186.040909,230.881836 
z"/>
<path fill="#F37421" opacity="1.000000" stroke="none" 
	d="
M164.829071,163.827820 
	C173.800705,163.771973 182.499603,163.819214 191.193817,164.045456 
	C193.439209,164.103882 195.669983,164.724152 198.321884,165.343231 
	C193.204391,171.189514 187.672485,176.778885 181.529037,182.684875 
	C173.000488,183.002457 165.083511,183.003403 157.166519,183.004364 
	C159.629196,176.668777 162.091888,170.333191 164.829071,163.827820 
z"/>
<path fill="#F4801E" opacity="1.000000" stroke="none" 
	d="
M156.980072,183.370667 
	C165.083511,183.003403 173.000488,183.002457 181.375443,183.002228 
	C178.305695,190.308640 175.708008,197.849945 175.447723,206.559174 
	C168.595245,207.372650 162.272629,207.744568 155.950012,208.116486 
	C155.744614,202.160599 155.392380,196.204254 155.411057,190.249069 
	C155.417877,188.076935 156.307007,185.907593 156.980072,183.370667 
z"/>
<path fill="#F5891B" opacity="1.000000" stroke="none" 
	d="
M155.972748,208.531906 
	C162.272629,207.744568 168.595245,207.372650 175.375580,207.001190 
	C176.533844,215.871445 179.625931,223.719116 185.907471,230.571259 
	C183.011902,231.254150 179.987946,231.676086 176.952530,231.985580 
	C173.545059,232.333023 170.127243,232.578857 166.296326,232.952805 
	C159.944214,226.090088 156.924713,217.947495 155.972748,208.531906 
z"/>
<path fill="#F16126" opacity="1.000000" stroke="none" 
	d="
M309.092407,121.415817 
	C310.677155,120.408188 312.374298,119.182030 314.125000,119.100105 
	C319.711639,118.838707 325.318146,119.002289 331.374817,119.002457 
	C333.890991,124.373497 335.949341,129.743820 337.693726,135.752228 
	C332.213867,136.940720 327.047943,137.491150 321.882050,138.041565 
	C317.664459,132.601395 313.446899,127.161217 309.092407,121.415817 
z"/>
<path fill="#F16725" opacity="1.000000" stroke="none" 
	d="
M321.940430,138.400970 
	C327.047943,137.491150 332.213867,136.940720 337.714966,136.142838 
	C339.692871,142.984421 341.335602,150.073456 342.504211,157.550537 
	C338.408447,157.626129 334.786835,157.313675 331.165222,157.001236 
	C328.109741,150.920944 325.054260,144.840652 321.940430,138.400970 
z"/>
<path fill="#F37421" opacity="1.000000" stroke="none" 
	d="
M331.220734,157.365707 
	C334.786835,157.313675 338.408447,157.626129 342.432373,157.969757 
	C343.223480,163.377319 343.796265,168.751343 343.865784,174.131866 
	C343.882263,175.406174 342.080566,177.835220 341.340759,177.751007 
	C339.832001,177.579285 337.711853,176.361298 337.190765,175.042145 
	C334.952759,169.376755 333.203552,163.518295 331.220734,157.365707 
z"/>
<path fill="#FBC50B" opacity="1.000000" stroke="none" 
	d="
M92.098206,336.416351 
	C108.946106,336.004852 125.723244,335.983124 142.500198,336.028595 
	C144.461166,336.033905 146.421097,336.410034 148.719482,336.863129 
	C137.112701,344.303955 124.346771,349.010498 110.333771,350.026123 
	C108.230820,350.178558 106.157646,350.908386 104.061264,350.956024 
	C95.023232,351.161377 95.012436,351.107147 93.014122,342.071045 
	C92.630196,340.334961 92.353531,338.575104 92.098206,336.416351 
z"/>
</svg>