<svg version="1.1" id="Layer_1" xmlns="http://www.w3.org/2000/svg" xmlns:xlink="http://www.w3.org/1999/xlink" x="0px" y="0px"
	 width="100%" viewBox="0 0 1600 1600" enable-background="new 0 0 1600 1600" xml:space="preserve">
<path fill="#000000" opacity="1.000000" stroke="none" 
	d="
M742.000000,1601.000000 
	C494.666718,1601.000000 247.833420,1601.000000 1.000099,1601.000000 
	C1.000066,1067.666748 1.000066,534.333618 1.000033,1.000314 
	C534.333069,1.000209 1067.666138,1.000209 1600.999512,1.000105 
	C1600.999634,534.333008 1600.999634,1067.666016 1600.999756,1600.999512 
	C1314.833374,1601.000000 1028.666626,1601.000000 742.000000,1601.000000 
M428.001556,951.757507 
	C431.982666,958.538635 435.963806,965.319763 440.017517,972.814636 
	C446.401215,982.211853 452.784912,991.609070 459.258698,1001.672485 
	C459.944916,1002.393921 460.703278,1003.059937 461.306793,1003.844971 
	C474.293671,1020.739685 488.396210,1036.579224 505.236176,1050.716187 
	C510.916046,1055.399292 516.327393,1060.464844 522.334106,1064.682617 
	C533.356018,1072.421875 544.728882,1079.661255 556.292664,1087.716553 
	C567.151550,1093.281860 577.687317,1099.640137 588.944946,1104.226562 
	C605.898682,1111.133789 623.103699,1117.685425 640.678711,1122.725708 
	C655.638123,1127.016113 671.228333,1129.207886 686.623962,1131.832764 
	C694.018921,1133.093506 701.608765,1133.211182 710.011414,1133.988403 
	C711.857544,1133.960327 713.703674,1133.932251 715.615967,1133.928711 
	C715.615967,1133.928711 715.624329,1133.858398 716.154480,1134.607422 
	C724.388977,1135.072021 732.632751,1136.046509 740.855957,1135.895630 
	C758.383057,1135.574341 775.909546,1134.862183 793.416687,1133.937988 
	C806.048340,1133.271240 818.658325,1132.115234 831.259583,1130.974609 
	C844.475891,1129.778442 857.681335,1128.439697 870.871338,1126.980713 
	C884.843018,1125.435303 898.806763,1123.796387 912.745239,1121.978027 
	C929.727051,1119.762939 946.749207,1117.731567 963.624878,1114.861816 
	C982.178955,1111.706665 1000.562805,1107.564087 1019.062744,1104.074219 
	C1051.089111,1098.032593 1082.640015,1089.995483 1113.542603,1079.792114 
	C1134.544067,1072.857666 1155.162964,1064.598389 1175.505981,1055.887695 
	C1191.831055,1048.897583 1207.006348,1039.787842 1220.261353,1027.491333 
	C1231.851685,1016.739258 1229.178467,1002.962158 1219.992798,993.397949 
	C1208.468506,981.398682 1194.245117,973.423523 1179.713867,966.060791 
	C1157.288940,954.698425 1134.417969,944.215881 1112.000000,932.840332 
	C1105.401489,929.492065 1099.240723,924.895691 1093.701294,919.950439 
	C1087.703613,914.596191 1088.815796,909.163452 1095.919922,905.633545 
	C1100.251831,903.480896 1104.710205,901.299988 1109.362549,900.123962 
	C1128.980957,895.165100 1148.757690,890.828491 1168.355591,885.793884 
	C1193.094971,879.438477 1218.100342,873.898132 1241.778564,863.966064 
	C1255.837036,858.069214 1269.541748,851.515198 1279.772949,839.676453 
	C1287.565063,830.659973 1290.521606,820.508301 1287.274292,808.576599 
	C1283.821655,795.890747 1275.092163,787.475952 1265.187622,780.098083 
	C1245.626465,765.527039 1223.362793,756.175903 1200.617065,747.941833 
	C1179.033081,740.128357 1157.297119,732.733337 1135.745605,724.833191 
	C1130.420044,722.880981 1125.551025,719.683350 1120.472046,717.058228 
	C1120.541016,716.360107 1120.610107,715.661987 1120.679077,714.963928 
	C1123.091675,713.976624 1125.425415,712.480469 1127.930908,712.091553 
	C1137.920898,710.541138 1147.933716,708.999084 1157.995361,708.082275 
	C1172.415405,706.768372 1186.900024,706.174744 1201.330688,704.961609 
	C1218.974976,703.478210 1236.602173,701.770081 1254.218018,699.975830 
	C1269.760986,698.392761 1285.016846,695.329102 1299.728516,689.954834 
	C1306.498169,687.481750 1313.256104,684.636536 1317.716797,678.677002 
	C1324.706543,669.339111 1323.178711,659.213745 1318.733765,649.541504 
	C1311.120850,632.976257 1297.083008,622.304382 1282.809204,611.967468 
	C1261.940308,596.854553 1239.058960,585.165955 1216.109619,573.766296 
	C1185.887207,558.753906 1155.681396,543.500122 1124.525513,530.633484 
	C1093.789551,517.940369 1062.116211,507.344879 1030.400391,497.256042 
	C1008.387207,490.253632 985.686829,485.313141 963.137817,480.128693 
	C948.587463,476.783356 933.783081,474.496429 919.039978,472.051849 
	C909.062134,470.397522 899.011169,469.134369 888.959534,467.989044 
	C879.041748,466.858948 869.082031,466.097321 858.210327,465.053497 
	C855.378845,465.016571 852.533997,465.144409 849.718201,464.915314 
	C834.293457,463.660492 818.897644,461.802887 803.449707,461.150360 
	C787.906128,460.493774 772.312195,460.898895 756.742371,461.049866 
	C748.625610,461.128510 740.490601,461.383911 732.403687,462.045929 
	C714.148926,463.540253 695.771606,464.407013 677.719788,467.268280 
	C659.079651,470.222717 640.530273,474.405914 622.369263,479.559998 
	C599.922119,485.930450 579.016724,496.428589 558.958801,508.219208 
	C545.803711,515.952148 533.586243,525.280090 520.351013,534.220215 
	C510.549652,542.781311 500.748230,551.342407 490.352936,560.217773 
	C484.153076,567.059509 477.503418,573.551575 471.852478,580.820068 
	C461.894867,593.627930 452.546906,606.909790 443.005737,620.006775 
	C443.005737,620.006775 443.007660,619.943298 442.541656,620.093994 
	C442.223480,620.273254 442.070374,620.545410 441.747681,621.521973 
	C433.157532,638.366699 423.653198,654.816101 416.161987,672.136108 
	C399.020325,711.768494 391.715515,753.617432 391.071991,796.662720 
	C390.935791,805.771301 391.709991,814.893555 392.025696,824.872986 
	C394.019775,838.925110 395.542816,853.065796 398.164978,866.999756 
	C400.079254,877.172058 403.441010,887.072083 406.106384,897.945374 
	C406.395935,898.699402 406.687012,899.452942 406.974884,900.207581 
	C411.277832,911.487976 415.580383,922.768494 420.004791,934.785950 
	C422.629578,940.202393 425.254333,945.618896 428.001556,951.757507 
M900.166443,1258.943604 
	C901.789429,1258.633301 903.399963,1258.173462 905.037476,1258.036499 
	C917.398499,1257.003052 929.810364,1256.416992 942.118958,1254.955200 
	C961.948730,1252.600220 981.780273,1250.098145 1001.478027,1246.850830 
	C1014.334045,1244.731689 1027.162964,1241.854370 1038.671509,1235.116455 
	C1045.842163,1230.918335 1046.162354,1224.004395 1038.979370,1220.116211 
	C1033.905884,1217.370239 1028.561523,1214.855957 1023.044250,1213.244385 
	C998.050720,1205.944092 972.244751,1203.051758 946.494995,1200.115601 
	C930.564026,1198.298950 914.549438,1197.088257 898.541748,1196.105225 
	C881.987610,1195.088745 865.401306,1194.484619 848.819824,1194.062866 
	C836.330750,1193.745239 823.826111,1193.892700 811.330322,1194.022949 
	C787.045654,1194.276001 762.754333,1194.383301 738.480896,1195.078369 
	C717.605896,1195.676147 696.747375,1196.924927 675.890869,1198.057373 
	C668.134155,1198.478638 660.372253,1199.139282 652.668640,1200.127197 
	C638.754822,1201.911743 624.857300,1203.861084 611.000549,1206.043457 
	C595.318481,1208.513184 579.623962,1211.297363 565.216125,1218.285034 
	C561.727478,1219.977051 558.068726,1223.673096 556.924011,1227.231201 
	C555.572998,1231.430664 560.247314,1233.856812 563.572144,1236.016968 
	C564.805481,1236.818237 566.183350,1237.421753 567.545410,1237.996582 
	C584.622192,1245.202271 602.792969,1248.199585 620.909851,1250.773071 
	C642.651123,1253.861572 664.541931,1256.117065 686.438660,1257.830078 
	C707.584900,1259.484375 728.823181,1260.873169 750.017334,1260.822754 
	C799.752747,1260.704346 849.485901,1259.655884 900.166443,1258.943604 
M1263.193970,899.931763 
	C1252.269165,901.626770 1241.245850,902.855225 1230.444824,905.136108 
	C1217.259644,907.920471 1204.613525,912.450195 1193.222656,919.956665 
	C1183.860596,926.126282 1180.901978,935.992493 1192.675293,943.170715 
	C1198.728149,946.861084 1204.958862,950.523743 1211.557983,953.005371 
	C1232.446045,960.860474 1253.806763,966.542664 1276.513916,965.062683 
	C1286.852417,964.388794 1296.150146,961.429504 1304.488281,955.183838 
	C1320.157227,943.447021 1321.191650,924.944397 1307.578979,912.396484 
	C1295.503296,901.265442 1280.260864,897.985718 1263.193970,899.931763 
M1331.388550,744.141907 
	C1336.410767,742.209229 1340.930786,739.469360 1342.951904,734.260803 
	C1346.426147,725.307129 1342.006714,717.560120 1331.807983,714.018433 
	C1323.965454,711.294861 1316.064331,712.247681 1308.309204,714.073364 
	C1298.715332,716.331848 1289.039673,718.526917 1281.028320,724.952820 
	C1276.835571,728.315674 1276.819824,732.998474 1281.373657,736.073181 
	C1283.255249,737.343628 1285.102539,738.875793 1287.203125,739.576904 
	C1301.360718,744.302124 1315.644043,748.301514 1331.388550,744.141907 
z"/>
<path fill="#3A2416" opacity="1.000000" stroke="none" 
	d="
M392.064758,824.009521 
	C391.709991,814.893555 390.935791,805.771301 391.071991,796.662720 
	C391.715515,753.617432 399.020325,711.768494 416.161987,672.136108 
	C423.653198,654.816101 433.157532,638.366699 442.158142,621.151306 
	C442.714966,620.501526 442.861298,620.222412 443.007660,619.943298 
	C443.007660,619.943298 443.005737,620.006775 443.343628,620.055786 
	C445.888000,618.965942 448.058746,617.750671 450.306824,616.700989 
	C463.715454,610.440063 476.793976,603.276428 490.628448,598.160461 
	C530.233643,583.514465 571.313843,578.830383 613.402222,581.722351 
	C644.027588,583.826660 673.557434,590.372925 702.366577,601.946472 
	C729.251648,613.100220 753.399597,627.833313 774.126404,648.396973 
	C777.928040,652.545349 781.734314,656.265991 785.171875,660.300659 
	C797.488098,674.756470 806.339294,691.179810 812.519470,709.532227 
	C818.482544,731.180725 818.520630,752.571411 814.089783,774.440002 
	C805.812195,805.894592 787.838684,830.639099 763.691956,851.069641 
	C754.334412,858.987122 743.868225,865.594299 733.565063,872.894653 
	C727.166382,876.138672 721.209290,879.498291 715.036926,882.399963 
	C672.267395,902.506714 627.040161,910.714111 580.061584,908.720825 
	C562.525696,907.976807 545.019592,905.322083 527.637634,902.644775 
	C518.352966,901.214661 509.361542,897.880920 499.927673,895.247498 
	C497.415741,894.328857 495.205170,893.593384 493.013367,892.805603 
	C457.542664,880.056030 425.790222,861.547424 400.459686,833.077576 
	C397.722198,830.000732 394.865936,827.029663 392.064758,824.009521 
M424.388306,756.747559 
	C427.510773,763.277100 429.803680,770.394897 433.929291,776.213135 
	C442.386017,788.139282 453.723206,788.085144 463.847107,776.613586 
	C466.567139,772.072388 469.720886,767.731140 471.924774,762.951904 
	C478.185150,749.376221 480.115143,734.738647 480.677887,720.030518 
	C480.996552,711.701660 479.499969,703.315308 479.057892,694.942383 
	C478.458191,683.583435 475.053192,673.093384 469.317871,663.398071 
	C467.609192,660.509705 464.827026,658.256287 462.262360,655.044800 
	C454.949768,648.999084 446.546173,649.210022 439.569550,656.113586 
	C429.361450,666.214844 425.056183,679.168701 422.298553,693.603699 
	C421.251007,704.741211 420.203461,715.878723 419.060944,727.846436 
	C419.442017,730.437317 419.728760,733.046387 420.222351,735.615662 
	C421.531128,742.428101 422.929260,749.223389 424.388306,756.747559 
M616.762451,670.592590 
	C613.413574,680.026001 610.064697,689.459351 606.361755,699.580444 
	C605.626282,710.392517 604.890808,721.204590 604.311218,732.803528 
	C604.542603,734.410522 604.617920,736.058899 605.031311,737.617615 
	C607.286255,746.120178 609.624451,754.600647 611.979248,763.826965 
	C615.301941,773.281250 620.658020,781.522766 628.465942,787.678833 
	C639.920898,796.710510 649.476318,798.665161 662.062744,791.913696 
	C671.212952,787.304932 677.089233,779.562744 682.010376,770.947327 
	C690.329895,756.382446 693.159912,740.320435 693.895020,723.914673 
	C694.652283,707.015442 692.202271,690.480896 684.905579,675.009705 
	C680.026062,664.663452 673.796692,655.342041 662.402649,649.691406 
	C658.750549,648.753967 655.120483,647.114502 651.442627,646.999451 
	C634.646179,646.473938 624.860535,656.768677 616.762451,670.592590 
z"/>
<path fill="#3DC4EE" opacity="1.000000" stroke="none" 
	d="
M859.140686,465.174011 
	C869.082031,466.097321 879.041748,466.858948 888.959534,467.989044 
	C899.011169,469.134369 909.062134,470.397522 919.039978,472.051849 
	C933.783081,474.496429 948.587463,476.783356 963.137817,480.128693 
	C985.686829,485.313141 1008.387207,490.253632 1030.400391,497.256042 
	C1062.116211,507.344879 1093.789551,517.940369 1124.525513,530.633484 
	C1155.681396,543.500122 1185.887207,558.753906 1216.109619,573.766296 
	C1239.058960,585.165955 1261.940308,596.854553 1282.809204,611.967468 
	C1297.083008,622.304382 1311.120850,632.976257 1318.733765,649.541504 
	C1323.178711,659.213745 1324.706543,669.339111 1317.716797,678.677002 
	C1313.256104,684.636536 1306.498169,687.481750 1299.728516,689.954834 
	C1285.016846,695.329102 1269.760986,698.392761 1254.218018,699.975830 
	C1236.602173,701.770081 1218.974976,703.478210 1201.330688,704.961609 
	C1186.900024,706.174744 1172.415405,706.768372 1157.995361,708.082275 
	C1147.933716,708.999084 1137.920898,710.541138 1127.930908,712.091553 
	C1125.425415,712.480469 1123.091675,713.976624 1120.679077,714.963928 
	C1120.610107,715.661987 1120.541016,716.360107 1120.472046,717.058228 
	C1125.551025,719.683350 1130.420044,722.880981 1135.745605,724.833191 
	C1157.297119,732.733337 1179.033081,740.128357 1200.617065,747.941833 
	C1223.362793,756.175903 1245.626465,765.527039 1265.187622,780.098083 
	C1275.092163,787.475952 1283.821655,795.890747 1287.274292,808.576599 
	C1290.521606,820.508301 1287.565063,830.659973 1279.772949,839.676453 
	C1269.541748,851.515198 1255.837036,858.069214 1241.778564,863.966064 
	C1218.100342,873.898132 1193.094971,879.438477 1168.355591,885.793884 
	C1148.757690,890.828491 1128.980957,895.165100 1109.362549,900.123962 
	C1104.710205,901.299988 1100.251831,903.480896 1095.919922,905.633545 
	C1088.815796,909.163452 1087.703613,914.596191 1093.701294,919.950439 
	C1099.240723,924.895691 1105.401489,929.492065 1112.000000,932.840332 
	C1134.417969,944.215881 1157.288940,954.698425 1179.713867,966.060791 
	C1194.245117,973.423523 1208.468506,981.398682 1219.992798,993.397949 
	C1229.178467,1002.962158 1231.851685,1016.739258 1220.261353,1027.491333 
	C1207.006348,1039.787842 1191.831055,1048.897583 1175.505981,1055.887695 
	C1155.162964,1064.598389 1134.544067,1072.857666 1113.542603,1079.792114 
	C1082.640015,1089.995483 1051.089111,1098.032593 1019.062744,1104.074219 
	C1000.562805,1107.564087 982.178955,1111.706665 963.624878,1114.861816 
	C946.749207,1117.731567 929.727051,1119.762939 912.745239,1121.978027 
	C898.806763,1123.796387 884.843018,1125.435303 870.871338,1126.980713 
	C857.681335,1128.439697 844.475891,1129.778442 831.259583,1130.974609 
	C818.658325,1132.115234 806.048340,1133.271240 793.416687,1133.937988 
	C775.909546,1134.862183 758.383057,1135.574341 740.855957,1135.895630 
	C732.632751,1136.046509 724.388977,1135.072021 716.171143,1134.145020 
	C716.382080,1133.654053 716.576416,1133.625488 717.203613,1133.740356 
	C718.834045,1133.789673 720.031555,1133.695679 721.681274,1133.588135 
	C727.323730,1133.554199 732.514038,1133.534180 738.128662,1133.603882 
	C740.240540,1133.721802 741.928040,1133.749878 744.105835,1133.831543 
	C767.578491,1134.591675 790.433289,1132.881714 813.211609,1130.054443 
	C840.067444,1126.721069 867.051514,1124.089722 893.705078,1119.542847 
	C926.298645,1113.982544 958.696716,1107.162842 991.014587,1100.130737 
	C1027.164429,1092.264893 1062.493042,1081.442383 1096.914062,1067.822998 
	C1115.948730,1060.291504 1134.875732,1052.469238 1152.324463,1040.866211 
	C1155.552979,1038.843750 1158.817871,1037.337402 1161.321167,1035.011475 
	C1167.682373,1029.100952 1174.371338,1023.343933 1179.667358,1016.542908 
	C1184.720215,1010.054016 1182.508911,1001.690979 1175.868408,996.677063 
	C1169.629028,991.524536 1163.952271,986.041809 1157.414429,981.927246 
	C1148.007935,976.007263 1138.105103,970.826538 1128.180176,965.791199 
	C1112.020020,957.592407 1095.670776,949.766174 1079.149414,941.543152 
	C1075.229858,939.022827 1071.307495,937.062561 1067.948486,934.393311 
	C1061.382446,929.175476 1054.447144,924.164124 1048.956421,917.929749 
	C1044.164185,912.488525 1045.954712,907.238037 1052.333374,903.541138 
	C1055.337280,901.800171 1058.549683,900.151733 1061.881836,899.287903 
	C1082.014038,894.069275 1102.212646,889.107178 1122.380005,884.023987 
	C1133.979980,881.100281 1145.563232,878.110046 1157.553467,875.127686 
	C1179.916626,869.957886 1201.369873,863.225525 1221.121216,852.184082 
	C1228.290527,848.176331 1235.184814,843.075378 1240.910645,837.210022 
	C1253.702393,824.106323 1254.216675,807.071716 1243.122070,793.573853 
	C1238.323975,788.839661 1233.956055,784.053101 1228.951904,780.065002 
	C1214.003906,768.151855 1196.787842,760.240234 1179.171387,753.282898 
	C1147.503174,740.776428 1115.700806,728.609070 1083.669189,716.095459 
	C1080.634644,713.751770 1077.614014,711.877808 1075.202759,709.408630 
	C1071.964600,706.092468 1072.609619,702.053894 1076.793823,700.042969 
	C1080.495361,698.264099 1084.518433,696.450500 1088.521240,696.118469 
	C1111.035034,694.251160 1133.563599,692.156372 1156.129028,691.411499 
	C1188.711182,690.335876 1221.341064,690.510620 1253.723022,686.015808 
	C1265.124634,684.433167 1276.428955,682.328491 1286.653687,676.637756 
	C1291.272461,674.067139 1295.124878,670.707520 1295.955078,664.542236 
	C1296.812378,656.453552 1295.044678,649.178467 1290.399292,643.350586 
	C1284.867432,636.410461 1278.225586,630.355103 1271.924316,623.605835 
	C1256.089600,609.376587 1238.316772,598.473022 1220.194946,588.146423 
	C1208.394531,581.422058 1196.263794,575.276978 1184.039673,568.619995 
	C1167.201172,560.127686 1150.762695,551.547546 1133.975464,543.715210 
	C1092.984375,524.590149 1050.908447,508.243378 1007.281982,496.129059 
	C986.327026,490.310242 965.410034,484.156647 944.156921,479.662903 
	C920.278809,474.614136 896.040771,471.267456 871.538940,467.102966 
	C867.125916,466.408447 863.133301,465.791229 859.140686,465.174011 
z"/>
<path fill="#4A3F5A" opacity="1.000000" stroke="none" 
	d="
M899.693237,1258.963623 
	C849.485901,1259.655884 799.752747,1260.704346 750.017334,1260.822754 
	C728.823181,1260.873169 707.584900,1259.484375 686.438660,1257.830078 
	C664.541931,1256.117065 642.651123,1253.861572 620.909851,1250.773071 
	C602.792969,1248.199585 584.622192,1245.202271 567.545410,1237.996582 
	C566.183350,1237.421753 564.805481,1236.818237 563.572144,1236.016968 
	C560.247314,1233.856812 555.572998,1231.430664 556.924011,1227.231201 
	C558.068726,1223.673096 561.727478,1219.977051 565.216125,1218.285034 
	C579.623962,1211.297363 595.318481,1208.513184 611.000549,1206.043457 
	C624.857300,1203.861084 638.754822,1201.911743 652.668640,1200.127197 
	C660.372253,1199.139282 668.134155,1198.478638 675.890869,1198.057373 
	C696.747375,1196.924927 717.605896,1195.676147 738.480896,1195.078369 
	C762.754333,1194.383301 787.045654,1194.276001 811.330322,1194.022949 
	C823.826111,1193.892700 836.330750,1193.745239 848.819824,1194.062866 
	C865.401306,1194.484619 881.987610,1195.088745 898.541748,1196.105225 
	C914.549438,1197.088257 930.564026,1198.298950 946.494995,1200.115601 
	C972.244751,1203.051758 998.050720,1205.944092 1023.044250,1213.244385 
	C1028.561523,1214.855957 1033.905884,1217.370239 1038.979370,1220.116211 
	C1046.162354,1224.004395 1045.842163,1230.918335 1038.671509,1235.116455 
	C1027.162964,1241.854370 1014.334045,1244.731689 1001.478027,1246.850830 
	C981.780273,1250.098145 961.948730,1252.600220 942.118958,1254.955200 
	C929.810364,1256.416992 917.398499,1257.003052 905.037476,1258.036499 
	C903.399963,1258.173462 901.789429,1258.633301 899.693237,1258.963623 
z"/>
<path fill="#CB2E7E" opacity="1.000000" stroke="none" 
	d="
M504.950623,1050.107300 
	C488.396210,1036.579224 474.293671,1020.739685 461.306793,1003.844971 
	C460.703278,1003.059937 459.944916,1002.393921 459.629456,1001.328735 
	C463.134888,1000.657410 466.269501,1000.044006 469.404236,1000.043213 
	C643.547913,999.999878 817.691589,1000.007751 991.896973,1000.474121 
	C993.127747,1014.870728 990.548950,1027.967285 983.101929,1040.337891 
	C980.696655,1043.881348 978.430603,1047.095703 975.832703,1050.035156 
	C973.713928,1049.506958 971.927063,1049.031982 970.140137,1049.031494 
	C816.990784,1048.997437 663.841431,1048.995972 510.692047,1049.046021 
	C508.778137,1049.046631 506.864441,1049.738281 504.950623,1050.107300 
z"/>
<path fill="#AB3081" opacity="1.000000" stroke="none" 
	d="
M500.237793,895.406311 
	C509.361542,897.880920 518.352966,901.214661 527.637634,902.644775 
	C545.019592,905.322083 562.525696,907.976807 580.061584,908.720825 
	C627.040161,910.714111 672.267395,902.506714 715.036926,882.399963 
	C721.209290,879.498291 727.166382,876.138672 733.795837,873.228699 
	C736.541992,873.979187 738.713989,874.932312 740.888794,874.938721 
	C773.289795,875.034241 805.691223,875.030334 838.092285,874.952393 
	C840.520081,874.946533 842.946045,874.199707 845.547363,873.844238 
	C845.721802,873.891235 846.070435,873.985901 846.090576,874.334961 
	C858.514893,895.821411 878.337341,908.355164 898.837158,920.080994 
	C905.854675,924.094971 912.964355,927.947937 919.696289,932.123779 
	C916.895813,932.581177 914.431091,932.971130 911.966187,932.971558 
	C750.882812,933.000305 589.799500,932.991943 428.716125,933.041321 
	C425.771667,933.042236 422.827393,933.698486 419.883057,934.049011 
	C415.580383,922.768494 411.277832,911.487976 406.974884,900.207581 
	C406.687012,899.452942 406.395935,898.699402 406.658203,897.503723 
	C436.057892,897.039001 464.905945,897.049805 493.753387,896.924622 
	C495.917023,896.915222 498.076447,895.935181 500.237793,895.406311 
z"/>
<path fill="#4C388A" opacity="1.000000" stroke="none" 
	d="
M702.015442,601.834900 
	C673.557434,590.372925 644.027588,583.826660 613.402222,581.722351 
	C571.313843,578.830383 530.233643,583.514465 490.628448,598.160461 
	C476.793976,603.276428 463.715454,610.440063 450.306824,616.700989 
	C448.058746,617.750671 445.888000,618.965942 443.312622,620.049011 
	C452.546906,606.909790 461.894867,593.627930 471.852478,580.820068 
	C477.503418,573.551575 484.153076,567.059509 490.990936,560.304993 
	C494.094452,560.595642 496.559937,560.976685 499.025482,560.977112 
	C658.378174,561.005249 817.730896,560.987976 977.083618,561.045227 
	C985.045044,561.048096 993.006287,561.673096 1001.130615,562.322266 
	C1002.863464,566.090698 1004.433167,569.545349 1006.027405,573.391235 
	C1007.358093,582.190979 1008.664368,590.599487 1009.503784,599.006714 
	C929.819519,599.004395 850.602051,599.003357 771.384583,599.002502 
	C751.080933,599.002258 730.776062,598.893127 710.475159,599.128540 
	C707.645203,599.161377 704.834839,600.890869 702.015442,601.834900 
z"/>
<path fill="#BF2F7F" opacity="1.000000" stroke="none" 
	d="
M991.835266,1000.010437 
	C817.691589,1000.007751 643.547913,999.999878 469.404236,1000.043213 
	C466.269501,1000.044006 463.134888,1000.657410 459.584412,1000.995605 
	C452.784912,991.609070 446.401215,982.211853 440.321960,972.213318 
	C442.926056,971.408020 445.225647,971.026001 447.525299,971.025452 
	C575.950684,970.996826 704.376099,971.000000 832.801453,971.000000 
	C879.274414,971.000000 925.747498,971.023010 972.220276,970.932556 
	C974.565247,970.927979 976.908203,969.942993 979.497681,969.667725 
	C986.784546,977.999207 991.824219,986.963379 992.107422,998.337402 
	C991.973694,999.117371 991.904480,999.563904 991.835266,1000.010437 
z"/>
<path fill="#D82D7D" opacity="1.000000" stroke="none" 
	d="
M505.093384,1050.411743 
	C506.864441,1049.738281 508.778137,1049.046631 510.692047,1049.046021 
	C663.841431,1048.995972 816.990784,1048.997437 970.140137,1049.031494 
	C971.927063,1049.031982 973.713928,1049.506958 975.834595,1050.377686 
	C968.595703,1058.344604 961.467590,1066.241089 953.308472,1072.868530 
	C946.902283,1078.072266 939.221924,1081.707153 931.716125,1085.875854 
	C929.024170,1085.475220 926.723999,1085.033569 924.423279,1085.030640 
	C890.282288,1084.986206 856.141174,1085.000000 822.000122,1085.000000 
	C735.898071,1085.000000 649.795959,1084.981689 563.694031,1085.088501 
	C561.113708,1085.091675 558.534912,1086.406128 555.955444,1087.109131 
	C544.728882,1079.661255 533.356018,1072.421875 522.334106,1064.682617 
	C516.327393,1060.464844 510.916046,1055.399292 505.093384,1050.411743 
z"/>
<path fill="#E12C7C" opacity="1.000000" stroke="none" 
	d="
M556.124023,1087.412842 
	C558.534912,1086.406128 561.113708,1085.091675 563.694031,1085.088501 
	C649.795959,1084.981689 735.898071,1085.000000 822.000122,1085.000000 
	C856.141174,1085.000000 890.282288,1084.986206 924.423279,1085.030640 
	C926.723999,1085.033569 929.024170,1085.475220 931.559875,1086.195068 
	C921.013062,1091.627441 910.488098,1097.265381 899.404602,1101.409058 
	C849.317139,1120.135010 797.133728,1128.893188 743.645142,1133.014648 
	C741.396362,1133.138672 739.550354,1133.326416 737.704285,1133.514038 
	C732.514038,1133.534180 727.323730,1133.554199 721.388000,1133.433105 
	C719.351929,1133.393677 718.061279,1133.495361 716.770691,1133.597046 
	C716.576416,1133.625488 716.382080,1133.654053 715.906006,1133.770508 
	C715.624329,1133.858398 715.615967,1133.928711 715.301697,1133.626709 
	C713.028381,1133.498657 711.069397,1133.672607 709.110352,1133.846558 
	C701.608765,1133.211182 694.018921,1133.093506 686.623962,1131.832764 
	C671.228333,1129.207886 655.638123,1127.016113 640.678711,1122.725708 
	C623.103699,1117.685425 605.898682,1111.133789 588.944946,1104.226562 
	C577.687317,1099.640137 567.151550,1093.281860 556.124023,1087.412842 
z"/>
<path fill="#343A8D" opacity="1.000000" stroke="none" 
	d="
M858.675537,465.113770 
	C863.133301,465.791229 867.125916,466.408447 871.368713,467.441772 
	C869.409973,468.240662 867.208496,468.892029 864.990662,468.953552 
	C859.313171,469.111023 853.628357,469.006104 847.946472,469.006104 
	C847.871277,469.561951 847.796021,470.117767 847.720764,470.673615 
	C849.302673,471.322479 850.834961,472.158508 852.473755,472.592224 
	C878.840637,479.570709 904.755066,487.937805 929.475952,499.504730 
	C938.716858,503.828552 947.197937,509.776276 955.554199,514.988403 
	C907.680054,514.995544 860.277039,515.025330 812.874268,514.956421 
	C808.248718,514.949707 803.624146,514.334961 799.074951,513.625854 
	C799.412048,511.472839 799.673340,509.696472 799.849304,507.595276 
	C798.235901,505.568634 796.960999,503.506500 795.137451,502.224915 
	C785.205078,495.244171 773.595398,492.737427 761.944580,491.058319 
	C741.374817,488.093811 720.677063,487.455963 699.884216,488.719940 
	C660.158875,491.134674 622.591858,501.273651 587.474426,519.936584 
	C579.804565,524.012634 573.108398,529.920898 565.709290,535.095337 
	C564.964111,535.464966 564.473389,535.724609 563.599609,535.822876 
	C561.263428,535.439514 559.311401,535.037903 557.356934,535.025574 
	C547.117920,534.961060 536.877747,535.050537 526.639343,534.945374 
	C524.739136,534.925903 522.845520,534.260803 520.948853,533.893677 
	C533.586243,525.280090 545.803711,515.952148 558.958801,508.219208 
	C579.016724,496.428589 599.922119,485.930450 622.369263,479.559998 
	C640.530273,474.405914 659.079651,470.222717 677.719788,467.268280 
	C695.771606,464.407013 714.148926,463.540253 732.403687,462.045929 
	C740.490601,461.383911 748.625610,461.128510 756.742371,461.049866 
	C772.312195,460.898895 787.906128,460.493774 803.449707,461.150360 
	C818.897644,461.802887 834.293457,463.660492 849.718201,464.915314 
	C852.533997,465.144409 855.378845,465.016571 858.675537,465.113770 
z"/>
<path fill="#B82F80" opacity="1.000000" stroke="none" 
	d="
M979.252136,969.414490 
	C976.908203,969.942993 974.565247,970.927979 972.220276,970.932556 
	C925.747498,971.023010 879.274414,971.000000 832.801453,971.000000 
	C704.376099,971.000000 575.950684,970.996826 447.525299,971.025452 
	C445.225647,971.026001 442.926056,971.408020 440.285706,971.856445 
	C435.963806,965.319763 431.982666,958.538635 428.374878,951.380737 
	C433.883209,950.669373 439.017059,950.066711 444.153320,950.045593 
	C468.817474,949.944275 493.482330,950.002014 518.146912,949.999695 
	C663.467957,949.986084 808.789062,949.971436 954.456726,950.008423 
	C962.952942,956.511230 971.102539,962.962830 979.252136,969.414490 
z"/>
<path fill="#443A8C" opacity="1.000000" stroke="none" 
	d="
M520.649902,534.056946 
	C522.845520,534.260803 524.739136,534.925903 526.639343,534.945374 
	C536.877747,535.050537 547.117920,534.961060 557.356934,535.025574 
	C559.311401,535.037903 561.263428,535.439514 563.525024,536.174438 
	C560.341492,543.255066 560.375732,546.431030 564.580688,548.070312 
	C567.586304,549.242004 571.091797,550.021667 574.254822,549.720886 
	C581.664673,549.016235 588.982849,547.404968 596.373962,546.434143 
	C613.304504,544.210144 630.249268,542.090210 647.201721,540.039307 
	C665.140381,537.869141 683.104797,535.910339 701.039185,533.706665 
	C718.315308,531.583862 735.556580,529.174744 752.838440,527.102356 
	C756.838501,526.622742 760.941528,527.001587 764.691040,527.208130 
	C741.292053,531.284302 718.192627,535.099670 695.112976,539.030640 
	C691.524902,539.641724 688.026733,540.780396 684.487000,541.675171 
	C684.564087,542.292358 684.641235,542.909607 684.718323,543.526855 
	C686.905945,543.684570 689.093445,543.979736 691.281128,543.980286 
	C786.226013,544.003235 881.170898,543.986023 976.115784,544.042236 
	C980.747986,544.044983 985.379822,544.662354 990.253296,545.221802 
	C993.985718,550.969543 997.476624,556.489014 1000.967590,562.008423 
	C993.006287,561.673096 985.045044,561.048096 977.083618,561.045227 
	C817.730896,560.987976 658.378174,561.005249 499.025482,560.977112 
	C496.559937,560.976685 494.094452,560.595642 491.287903,560.147888 
	C500.748230,551.342407 510.549652,542.781311 520.649902,534.056946 
z"/>
<path fill="#B33080" opacity="1.000000" stroke="none" 
	d="
M954.110107,949.957153 
	C808.789062,949.971436 663.467957,949.986084 518.146912,949.999695 
	C493.482330,950.002014 468.817474,949.944275 444.153320,950.045593 
	C439.017059,950.066711 433.883209,950.669373 428.313660,951.019653 
	C425.254333,945.618896 422.629578,940.202393 419.943909,934.417480 
	C422.827393,933.698486 425.771667,933.042236 428.716125,933.041321 
	C589.799500,932.991943 750.882812,933.000305 911.966187,932.971558 
	C914.431091,932.971130 916.895813,932.581177 920.067749,932.174805 
	C922.436890,932.658325 924.155090,933.229553 925.751648,934.040283 
	C933.520081,937.985168 941.256104,941.994080 949.215088,946.229187 
	C950.987854,947.637756 952.548950,948.797424 954.110107,949.957153 
z"/>
<path fill="#3DC4EE" opacity="1.000000" stroke="none" 
	d="
M1263.603027,899.708252 
	C1280.260864,897.985718 1295.503296,901.265442 1307.578979,912.396484 
	C1321.191650,924.944397 1320.157227,943.447021 1304.488281,955.183838 
	C1296.150146,961.429504 1286.852417,964.388794 1276.513916,965.062683 
	C1253.806763,966.542664 1232.446045,960.860474 1211.557983,953.005371 
	C1204.958862,950.523743 1198.728149,946.861084 1192.675293,943.170715 
	C1180.901978,935.992493 1183.860596,926.126282 1193.222656,919.956665 
	C1204.613525,912.450195 1217.259644,907.920471 1230.444824,905.136108 
	C1241.245850,902.855225 1252.269165,901.626770 1263.603027,899.708252 
z"/>
<path fill="#9A3283" opacity="1.000000" stroke="none" 
	d="
M499.927673,895.247498 
	C498.076447,895.935181 495.917023,896.915222 493.753387,896.924622 
	C464.905945,897.049805 436.057892,897.039001 406.683777,897.077759 
	C403.441010,887.072083 400.079254,877.172058 398.164978,866.999756 
	C395.542816,853.065796 394.019775,838.925110 392.045227,824.441284 
	C394.865936,827.029663 397.722198,830.000732 400.459686,833.077576 
	C425.790222,861.547424 457.542664,880.056030 493.013367,892.805603 
	C495.205170,893.593384 497.415741,894.328857 499.927673,895.247498 
z"/>
<path fill="#3DC4EE" opacity="1.000000" stroke="none" 
	d="
M1331.091797,744.422363 
	C1315.644043,748.301514 1301.360718,744.302124 1287.203125,739.576904 
	C1285.102539,738.875793 1283.255249,737.343628 1281.373657,736.073181 
	C1276.819824,732.998474 1276.835571,728.315674 1281.028320,724.952820 
	C1289.039673,718.526917 1298.715332,716.331848 1308.309204,714.073364 
	C1316.064331,712.247681 1323.965454,711.294861 1331.807983,714.018433 
	C1342.006714,717.560120 1346.426147,725.307129 1342.951904,734.260803 
	C1340.930786,739.469360 1336.410767,742.209229 1331.091797,744.422363 
z"/>
<path fill="#7678B0" opacity="1.000000" stroke="none" 
	d="
M709.560913,1133.917480 
	C711.069397,1133.672607 713.028381,1133.498657 715.268616,1133.614380 
	C713.703674,1133.932251 711.857544,1133.960327 709.560913,1133.917480 
z"/>
<path fill="#4C388A" opacity="1.000000" stroke="none" 
	d="
M442.774658,620.018677 
	C442.861298,620.222412 442.714966,620.501526 442.325500,620.845520 
	C442.070374,620.545410 442.223480,620.273254 442.774658,620.018677 
z"/>
<path fill="#583789" opacity="1.000000" stroke="none" 
	d="
M702.366577,601.946472 
	C704.834839,600.890869 707.645203,599.161377 710.475159,599.128540 
	C730.776062,598.893127 751.080933,599.002258 771.384583,599.002502 
	C850.602051,599.003357 929.819519,599.004395 1009.518188,599.449097 
	C1009.275818,604.245544 1009.021301,608.746948 1007.701782,612.910889 
	C1006.272095,617.422546 1003.849609,621.619507 1001.600098,626.156982 
	C996.285095,633.243469 991.230103,640.126831 985.775940,646.857300 
	C983.073303,646.469666 980.770203,646.035034 978.466309,646.030945 
	C951.472229,645.983215 924.478149,646.000000 897.484009,646.000000 
	C858.492493,646.000061 819.500854,645.966370 780.509766,646.090698 
	C778.324951,646.097656 776.144409,647.409058 773.961853,648.113281 
	C753.399597,627.833313 729.251648,613.100220 702.366577,601.946472 
z"/>
<path fill="#663688" opacity="1.000000" stroke="none" 
	d="
M774.126404,648.396973 
	C776.144409,647.409058 778.324951,646.097656 780.509766,646.090698 
	C819.500854,645.966370 858.492493,646.000061 897.484009,646.000000 
	C924.478149,646.000000 951.472229,645.983215 978.466309,646.030945 
	C980.770203,646.035034 983.073303,646.469666 985.575195,647.140381 
	C981.451050,653.356018 977.128357,659.135559 972.530396,665.094849 
	C970.463196,667.237305 968.676208,669.204651 966.878540,671.162048 
	C954.623596,684.505676 942.366394,697.847168 929.875977,710.861084 
	C927.964050,710.022766 926.286682,709.069824 924.608215,709.067932 
	C887.213440,709.025574 849.818604,709.088074 812.423767,709.130737 
	C806.339294,691.179810 797.488098,674.756470 785.171875,660.300659 
	C781.734314,656.265991 777.928040,652.545349 774.126404,648.396973 
z"/>
<path fill="#F6E92F" opacity="1.000000" stroke="none" 
	d="
M662.998352,650.129395 
	C673.796692,655.342041 680.026062,664.663452 684.905579,675.009705 
	C692.202271,690.480896 694.652283,707.015442 693.895020,723.914673 
	C693.159912,740.320435 690.329895,756.382446 682.010376,770.947327 
	C677.089233,779.562744 671.212952,787.304932 661.482300,791.738403 
	C659.943787,790.922668 658.970581,790.303528 658.029968,789.638367 
	C648.216248,782.699463 642.844238,772.538513 637.969971,761.627747 
	C636.567017,756.317078 635.006287,751.418884 633.868103,746.424377 
	C632.703613,741.314453 631.953186,736.110168 631.014160,730.482666 
	C631.793884,719.682434 632.580811,709.346680 633.545288,698.691528 
	C636.852478,689.324341 639.982056,680.276489 643.377563,671.009277 
	C648.424194,662.337769 654.713562,655.298889 662.998352,650.129395 
z"/>
<path fill="#9A3283" opacity="1.000000" stroke="none" 
	d="
M845.372864,873.797302 
	C842.946045,874.199707 840.520081,874.946533 838.092285,874.952393 
	C805.691223,875.030334 773.289795,875.034241 740.888794,874.938721 
	C738.713989,874.932312 736.541992,873.979187 734.137817,873.132446 
	C743.868225,865.594299 754.334412,858.987122 763.691956,851.069641 
	C787.838684,830.639099 805.812195,805.894592 814.484009,774.519287 
	C817.270264,774.492859 819.553589,774.975281 821.839172,774.986389 
	C836.219849,775.056641 850.601379,774.975220 864.981812,775.067627 
	C867.417053,775.083252 869.848511,775.697937 872.124878,776.350464 
	C866.952942,783.101746 861.937805,789.538330 856.673401,796.198669 
	C850.539246,807.102844 844.354126,817.632568 838.886108,828.522339 
	C835.792725,834.683044 834.809753,841.625000 836.878967,848.428284 
	C839.472961,856.956787 842.520874,865.347229 845.372864,873.797302 
z"/>
<path fill="#7A3486" opacity="1.000000" stroke="none" 
	d="
M872.281738,776.035889 
	C869.848511,775.697937 867.417053,775.083252 864.981812,775.067627 
	C850.601379,774.975220 836.219849,775.056641 821.839172,774.986389 
	C819.553589,774.975281 817.270264,774.492859 814.591675,774.149048 
	C818.520630,752.571411 818.482544,731.180725 812.519470,709.532227 
	C849.818604,709.088074 887.213440,709.025574 924.608215,709.067932 
	C926.286682,709.069824 927.964050,710.022766 929.694641,711.131836 
	C927.151123,714.815491 924.554932,717.900085 921.675659,721.157959 
	C916.223083,726.926697 910.974976,732.452087 905.899963,738.132080 
	C894.647888,750.725464 883.482483,763.396484 872.281738,776.035889 
z"/>
<path fill="#F6E92F" opacity="1.000000" stroke="none" 
	d="
M462.536713,655.711975 
	C464.827026,658.256287 467.609192,660.509705 469.317871,663.398071 
	C475.053192,673.093384 478.458191,683.583435 479.057892,694.942383 
	C479.499969,703.315308 480.996552,711.701660 480.677887,720.030518 
	C480.115143,734.738647 478.185150,749.376221 471.924774,762.951904 
	C469.720886,767.731140 466.567139,772.072388 463.396423,776.493774 
	C458.977661,769.576721 455.009613,762.779541 450.906189,755.620056 
	C449.129456,745.833801 447.488129,736.409851 445.906982,726.521362 
	C446.461426,715.396790 446.955719,704.736755 447.612488,693.737122 
	C450.157684,679.841614 454.279694,666.966919 462.536713,655.711975 
z"/>
<path fill="#9A3283" opacity="1.000000" stroke="none" 
	d="
M462.399536,655.378418 
	C454.279694,666.966919 450.157684,679.841614 447.165771,693.649719 
	C438.575989,693.573792 430.595367,693.245789 422.614777,692.917786 
	C425.056183,679.168701 429.361450,666.214844 439.569550,656.113586 
	C446.546173,649.210022 454.949768,648.999084 462.399536,655.378418 
z"/>
<path fill="#B82F80" opacity="1.000000" stroke="none" 
	d="
M633.367798,699.010986 
	C632.580811,709.346680 631.793884,719.682434 630.671997,730.719543 
	C621.609924,731.619507 612.882629,731.818115 604.155396,732.016663 
	C604.890808,721.204590 605.626282,710.392517 607.028992,699.262573 
	C616.253418,698.966736 624.810608,698.988831 633.367798,699.010986 
z"/>
<path fill="#B82F80" opacity="1.000000" stroke="none" 
	d="
M422.456665,693.260742 
	C430.595367,693.245789 438.575989,693.573792 447.003296,693.989258 
	C446.955719,704.736755 446.461426,715.396790 445.448364,726.524658 
	C436.338348,727.000366 427.747131,727.008301 419.155914,727.016235 
	C420.203461,715.878723 421.251007,704.741211 422.456665,693.260742 
z"/>
<path fill="#E12C7C" opacity="1.000000" stroke="none" 
	d="
M637.997559,761.997986 
	C642.844238,772.538513 648.216248,782.699463 658.029968,789.638367 
	C658.970581,790.303528 659.943787,790.922668 661.159851,791.817322 
	C649.476318,798.665161 639.920898,796.710510 628.465942,787.678833 
	C620.658020,781.522766 615.301941,773.281250 612.300842,763.216431 
	C621.080811,762.403259 629.539185,762.200623 637.997559,761.997986 
z"/>
<path fill="#CB2E7E" opacity="1.000000" stroke="none" 
	d="
M637.969971,761.627747 
	C629.539185,762.200623 621.080811,762.403259 612.278198,762.847290 
	C609.624451,754.600647 607.286255,746.120178 605.031311,737.617615 
	C604.617920,736.058899 604.542603,734.410522 604.233276,732.410095 
	C612.882629,731.818115 621.609924,731.619507 630.679321,731.184021 
	C631.953186,736.110168 632.703613,741.314453 633.868103,746.424377 
	C635.006287,751.418884 636.567017,756.317078 637.969971,761.627747 
z"/>
<path fill="#AB3081" opacity="1.000000" stroke="none" 
	d="
M633.545349,698.691589 
	C624.810608,698.988831 616.253418,698.966736 607.206055,698.918701 
	C610.064697,689.459351 613.413574,680.026001 617.430725,670.307129 
	C622.897156,670.017090 627.701721,669.858276 632.491272,670.058472 
	C636.041504,670.206909 639.572205,670.821655 643.111694,671.228638 
	C639.982056,680.276489 636.852478,689.324341 633.545349,698.691589 
z"/>
<path fill="#CB2E7E" opacity="1.000000" stroke="none" 
	d="
M419.108429,727.431335 
	C427.747131,727.008301 436.338348,727.000366 445.388184,726.989197 
	C447.488129,736.409851 449.129456,745.833801 450.434875,755.624023 
	C441.496552,756.002014 432.894196,756.013733 424.291809,756.025513 
	C422.929260,749.223389 421.531128,742.428101 420.222351,735.615662 
	C419.728760,733.046387 419.442017,730.437317 419.108429,727.431335 
z"/>
<path fill="#E12C7C" opacity="1.000000" stroke="none" 
	d="
M424.340057,756.386475 
	C432.894196,756.013733 441.496552,756.002014 450.570251,755.986328 
	C455.009613,762.779541 458.977661,769.576721 463.128601,776.669800 
	C453.723206,788.085144 442.386017,788.139282 433.929291,776.213135 
	C429.803680,770.394897 427.510773,763.277100 424.340057,756.386475 
z"/>
<path fill="#9A3283" opacity="1.000000" stroke="none" 
	d="
M643.377502,671.009277 
	C639.572205,670.821655 636.041504,670.206909 632.491272,670.058472 
	C627.701721,669.858276 622.897156,670.017090 617.644775,670.027222 
	C624.860535,656.768677 634.646179,646.473938 651.442627,646.999451 
	C655.120483,647.114502 658.750549,648.753967 662.700500,649.910400 
	C654.713562,655.298889 648.424194,662.337769 643.377502,671.009277 
z"/>
<path fill="#297BBE" opacity="1.000000" stroke="none" 
	d="
M845.547363,873.844238 
	C842.520874,865.347229 839.472961,856.956787 836.878967,848.428284 
	C834.809753,841.625000 835.792725,834.683044 838.886108,828.522339 
	C844.354126,817.632568 850.539246,807.102844 857.148071,796.204590 
	C983.670044,795.991150 1109.468018,796.008606 1235.265869,795.911804 
	C1237.931641,795.909729 1240.596191,794.591003 1243.261353,793.886475 
	C1254.216675,807.071716 1253.702393,824.106323 1240.910645,837.210022 
	C1235.184814,843.075378 1228.290527,848.176331 1221.121216,852.184082 
	C1201.369873,863.225525 1179.916626,869.957886 1157.161133,874.936218 
	C1153.739624,874.511230 1151.110107,874.033203 1148.480347,874.032104 
	C1047.677002,873.989502 946.873718,873.990601 846.070435,873.985901 
	C846.070435,873.985901 845.721802,873.891235 845.547363,873.844238 
z"/>
<path fill="#296EB4" opacity="1.000000" stroke="none" 
	d="
M1243.122070,793.573853 
	C1240.596191,794.591003 1237.931641,795.909729 1235.265869,795.911804 
	C1109.468018,796.008606 983.670044,795.991150 857.397339,795.980835 
	C861.937805,789.538330 866.952942,783.101746 872.124878,776.350525 
	C883.482483,763.396484 894.647888,750.725464 905.899963,738.132080 
	C910.974976,732.452087 916.223083,726.926697 922.106018,721.154419 
	C927.954529,720.651672 933.089172,720.051208 938.224792,720.042908 
	C984.050903,719.969238 1029.877197,720.000366 1075.703369,719.998352 
	C1077.202881,719.998291 1078.927002,720.435425 1080.144653,719.843018 
	C1081.636108,719.117371 1082.703735,717.520386 1083.954590,716.300049 
	C1115.700806,728.609070 1147.503174,740.776428 1179.171387,753.282898 
	C1196.787842,760.240234 1214.003906,768.151855 1228.951904,780.065002 
	C1233.956055,784.053101 1238.323975,788.839661 1243.122070,793.573853 
z"/>
<path fill="#2987C7" opacity="1.000000" stroke="none" 
	d="
M846.090576,874.334961 
	C946.873718,873.990601 1047.677002,873.989502 1148.480347,874.032104 
	C1151.110107,874.033203 1153.739624,874.511230 1156.761597,874.958252 
	C1145.563232,878.110046 1133.979980,881.100281 1122.380005,884.023987 
	C1102.212646,889.107178 1082.014038,894.069275 1061.881836,899.287903 
	C1058.549683,900.151733 1055.337280,901.800171 1052.333374,903.541138 
	C1045.954712,907.238037 1044.164185,912.488525 1048.956421,917.929749 
	C1054.447144,924.164124 1061.382446,929.175476 1067.948486,934.393311 
	C1071.307495,937.062561 1075.229858,939.022827 1078.725464,941.735596 
	C1076.098267,942.445068 1073.643433,942.960815 1071.187988,942.964233 
	C1033.768311,943.015625 996.348145,942.925171 958.929626,943.129700 
	C955.615845,943.147827 952.312012,944.987000 949.003540,945.980347 
	C941.256104,941.994080 933.520081,937.985168 925.751648,934.040283 
	C924.155090,933.229553 922.436890,932.658325 920.403320,931.925598 
	C912.964355,927.947937 905.854675,924.094971 898.837158,920.080994 
	C878.337341,908.355164 858.514893,895.821411 846.090576,874.334961 
z"/>
<path fill="#2961AA" opacity="1.000000" stroke="none" 
	d="
M1083.669189,716.095459 
	C1082.703735,717.520386 1081.636108,719.117371 1080.144653,719.843018 
	C1078.927002,720.435425 1077.202881,719.998291 1075.703369,719.998352 
	C1029.877197,720.000366 984.050903,719.969238 938.224792,720.042908 
	C933.089172,720.051208 927.954529,720.651672 922.389038,720.981079 
	C924.554932,717.900085 927.151123,714.815491 929.928589,711.460083 
	C942.366394,697.847168 954.623596,684.505676 966.878540,671.162048 
	C968.676208,669.204651 970.463196,667.237305 973.018005,665.118286 
	C1081.148682,664.971680 1188.516602,664.981384 1295.884399,664.991150 
	C1295.124878,670.707520 1291.272461,674.067139 1286.653687,676.637756 
	C1276.428955,682.328491 1265.124634,684.433167 1253.723022,686.015808 
	C1221.341064,690.510620 1188.711182,690.335876 1156.129028,691.411499 
	C1133.563599,692.156372 1111.035034,694.251160 1088.521240,696.118469 
	C1084.518433,696.450500 1080.495361,698.264099 1076.793823,700.042969 
	C1072.609619,702.053894 1071.964600,706.092468 1075.202759,709.408630 
	C1077.614014,711.877808 1080.634644,713.751770 1083.669189,716.095459 
z"/>
<path fill="#2A53A0" opacity="1.000000" stroke="none" 
	d="
M1001.860046,625.953735 
	C1003.849609,621.619507 1006.272095,617.422546 1007.701782,612.910889 
	C1009.021301,608.746948 1009.275818,604.245544 1009.984985,599.450439 
	C1008.664368,590.599487 1007.358093,582.190979 1006.356689,573.192749 
	C1009.203247,572.068665 1011.744324,571.072327 1014.287048,571.068054 
	C1068.120239,570.978149 1121.953613,571.032166 1175.786621,570.909424 
	C1178.619629,570.902954 1181.449707,569.581543 1184.281128,568.872314 
	C1196.263794,575.276978 1208.394531,581.422058 1220.194946,588.146423 
	C1238.316772,598.473022 1256.089600,609.376587 1271.579956,623.847107 
	C1269.076172,624.599243 1266.776733,624.973938 1264.477051,624.974792 
	C1180.068848,625.004700 1095.660522,624.989746 1011.252319,625.040161 
	C1008.121399,625.042053 1004.990784,625.635803 1001.860046,625.953735 
z"/>
<path fill="#295BA6" opacity="1.000000" stroke="none" 
	d="
M1001.600098,626.156982 
	C1004.990784,625.635803 1008.121399,625.042053 1011.252319,625.040161 
	C1095.660522,624.989746 1180.068848,625.004700 1264.477051,624.974792 
	C1266.776733,624.973938 1269.076172,624.599243 1271.720215,624.157715 
	C1278.225586,630.355103 1284.867432,636.410461 1290.399292,643.350586 
	C1295.044678,649.178467 1296.812378,656.453552 1295.955078,664.542236 
	C1188.516602,664.981384 1081.148682,664.971680 973.293335,664.938477 
	C977.128357,659.135559 981.451050,653.356018 985.974365,647.293335 
	C991.230103,640.126831 996.285095,633.243469 1001.600098,626.156982 
z"/>
<path fill="#2A4898" opacity="1.000000" stroke="none" 
	d="
M1184.039673,568.619995 
	C1181.449707,569.581543 1178.619629,570.902954 1175.786621,570.909424 
	C1121.953613,571.032166 1068.120239,570.978149 1014.287048,571.068054 
	C1011.744324,571.072327 1009.203247,572.068665 1006.332153,572.801514 
	C1004.433167,569.545349 1002.863464,566.090698 1001.130615,562.322266 
	C997.476624,556.489014 993.985718,550.969543 990.082397,544.933716 
	C984.863403,539.201416 980.466003,533.513855 975.141174,528.895630 
	C969.209290,523.750916 962.433716,519.578979 956.025452,514.983582 
	C947.197937,509.776276 938.716858,503.828552 929.475952,499.504730 
	C904.755066,487.937805 878.840637,479.570709 852.473755,472.592224 
	C850.834961,472.158508 849.302673,471.322479 847.720764,470.673615 
	C847.796021,470.117767 847.871277,469.561951 847.946472,469.006104 
	C853.628357,469.006104 859.313171,469.111023 864.990662,468.953552 
	C867.208496,468.892029 869.409973,468.240662 871.789124,467.519104 
	C896.040771,471.267456 920.278809,474.614136 944.156921,479.662903 
	C965.410034,484.156647 986.327026,490.310242 1007.281982,496.129059 
	C1050.908447,508.243378 1092.984375,524.590149 1133.975464,543.715210 
	C1150.762695,551.547546 1167.201172,560.127686 1184.039673,568.619995 
z"/>
<path fill="#28A1DA" opacity="1.000000" stroke="none" 
	d="
M744.047913,1133.078491 
	C797.133728,1128.893188 849.317139,1120.135010 899.404602,1101.409058 
	C910.488098,1097.265381 921.013062,1091.627441 931.951416,1086.358154 
	C939.221924,1081.707153 946.902283,1078.072266 953.308472,1072.868530 
	C961.467590,1066.241089 968.595703,1058.344604 976.166504,1050.652588 
	C978.430603,1047.095703 980.696655,1043.881348 983.505798,1040.372314 
	C986.513550,1040.385010 988.977905,1040.957642 991.442871,1040.960205 
	C1041.870605,1041.012207 1092.298340,1040.999268 1142.726074,1040.999878 
	C1145.822144,1040.999878 1148.918213,1041.006104 1152.014282,1041.009521 
	C1134.875732,1052.469238 1115.948730,1060.291504 1096.914062,1067.822998 
	C1062.493042,1081.442383 1027.164429,1092.264893 991.014587,1100.130737 
	C958.696716,1107.162842 926.298645,1113.982544 893.705078,1119.542847 
	C867.051514,1124.089722 840.067444,1126.721069 813.211609,1130.054443 
	C790.433289,1132.881714 767.578491,1134.591675 744.214966,1133.657227 
	C743.833801,1133.429199 744.047913,1133.078491 744.047913,1133.078491 
z"/>
<path fill="#2892CF" opacity="1.000000" stroke="none" 
	d="
M949.215088,946.229248 
	C952.312012,944.987000 955.615845,943.147827 958.929626,943.129700 
	C996.348145,942.925171 1033.768311,943.015625 1071.187988,942.964233 
	C1073.643433,942.960815 1076.098267,942.445068 1078.977295,941.975220 
	C1095.670776,949.766174 1112.020020,957.592407 1128.180176,965.791199 
	C1138.105103,970.826538 1148.007935,976.007263 1157.414429,981.927246 
	C1163.952271,986.041809 1169.629028,991.524536 1175.520264,996.911865 
	C1173.214966,997.618469 1171.080078,997.974792 1168.944824,997.975952 
	C1110.020508,998.007385 1051.096313,998.002686 992.171997,998.004028 
	C991.824219,986.963379 986.784546,977.999207 979.497681,969.667725 
	C971.102539,962.962830 962.952942,956.511230 954.456726,950.008423 
	C952.548950,948.797424 950.987854,947.637756 949.215088,946.229248 
z"/>
<path fill="#289AD5" opacity="1.000000" stroke="none" 
	d="
M992.107422,998.337402 
	C1051.096313,998.002686 1110.020508,998.007385 1168.944824,997.975952 
	C1171.080078,997.974792 1173.214966,997.618469 1175.698120,997.192871 
	C1182.508911,1001.690979 1184.720215,1010.054016 1179.667358,1016.542908 
	C1174.371338,1023.343933 1167.682373,1029.100952 1161.321167,1035.011475 
	C1158.817871,1037.337402 1155.552979,1038.843750 1152.324463,1040.866333 
	C1148.918213,1041.006104 1145.822144,1040.999878 1142.726074,1040.999878 
	C1092.298340,1040.999268 1041.870605,1041.012207 991.442871,1040.960205 
	C988.977905,1040.957642 986.513550,1040.385010 983.645020,1040.043213 
	C990.548950,1027.967285 993.127747,1014.870728 991.896973,1000.474121 
	C991.904480,999.563904 991.973694,999.117371 992.107422,998.337402 
z"/>
<path fill="#7678B0" opacity="1.000000" stroke="none" 
	d="
M743.645142,1133.014648 
	C744.047913,1133.078491 743.833801,1133.429199 743.724731,1133.603516 
	C741.928040,1133.749878 740.240540,1133.721802 738.128662,1133.603882 
	C739.550354,1133.326416 741.396362,1133.138672 743.645142,1133.014648 
z"/>
<path fill="#7678B0" opacity="1.000000" stroke="none" 
	d="
M717.203613,1133.740356 
	C718.061279,1133.495361 719.351929,1133.393677 720.935791,1133.446899 
	C720.031555,1133.695679 718.834045,1133.789673 717.203613,1133.740356 
z"/>
<path fill="#3E398C" opacity="1.000000" stroke="none" 
	d="
M955.554199,514.988403 
	C962.433716,519.578979 969.209290,523.750916 975.141174,528.895630 
	C980.466003,533.513855 984.863403,539.201416 989.840881,544.705444 
	C985.379822,544.662354 980.747986,544.044983 976.115784,544.042236 
	C881.170898,543.986023 786.226013,544.003235 691.281128,543.980286 
	C689.093445,543.979736 686.905945,543.684570 684.718323,543.526855 
	C684.641235,542.909607 684.564087,542.292358 684.487000,541.675171 
	C688.026733,540.780396 691.524902,539.641724 695.112976,539.030640 
	C718.192627,535.099670 741.292053,531.284302 765.098022,527.199219 
	C777.521240,524.303162 789.176941,521.499634 798.999084,514.002441 
	C803.624146,514.334961 808.248718,514.949707 812.874268,514.956421 
	C860.277039,515.025330 907.680054,514.995544 955.554199,514.988403 
z"/>
<path fill="#7678B0" opacity="1.000000" stroke="none" 
	d="
M565.963806,534.985352 
	C573.108398,529.920898 579.804565,524.012634 587.474426,519.936584 
	C622.591858,501.273651 660.158875,491.134674 699.884216,488.719940 
	C720.677063,487.455963 741.374817,488.093811 761.944580,491.058319 
	C773.595398,492.737427 785.205078,495.244171 795.137451,502.224915 
	C796.960999,503.506500 798.235901,505.568634 799.432373,507.615051 
	C796.966980,508.286102 794.840637,508.675751 792.698303,508.929077 
	C774.731079,511.054047 756.755554,513.110352 738.792969,515.273743 
	C720.666504,517.456848 702.557434,519.785095 684.430359,521.963135 
	C669.268616,523.784973 654.077820,525.370239 638.925171,527.262207 
	C619.323303,529.709717 599.759827,532.467896 580.149231,534.839294 
	C575.483093,535.403503 570.695496,534.963440 565.963806,534.985352 
z"/>
<path fill="#514D97" opacity="1.000000" stroke="none" 
	d="
M565.709290,535.095337 
	C570.695496,534.963440 575.483093,535.403503 580.149231,534.839294 
	C599.759827,532.467896 619.323303,529.709717 638.925171,527.262207 
	C654.077820,525.370239 669.268616,523.784973 684.430359,521.963135 
	C702.557434,519.785095 720.666504,517.456848 738.792969,515.273743 
	C756.755554,513.110352 774.731079,511.054047 792.698303,508.929077 
	C794.840637,508.675751 796.966980,508.286102 799.517639,507.939880 
	C799.673340,509.696472 799.412048,511.472839 799.074951,513.625854 
	C789.176941,521.499634 777.521240,524.303162 765.404114,526.976379 
	C760.941528,527.001587 756.838501,526.622742 752.838440,527.102356 
	C735.556580,529.174744 718.315308,531.583862 701.039185,533.706665 
	C683.104797,535.910339 665.140381,537.869141 647.201721,540.039307 
	C630.249268,542.090210 613.304504,544.210144 596.373962,546.434143 
	C588.982849,547.404968 581.664673,549.016235 574.254822,549.720886 
	C571.091797,550.021667 567.586304,549.242004 564.580688,548.070312 
	C560.375732,546.431030 560.341492,543.255066 563.908081,536.335815 
	C564.473389,535.724609 564.964111,535.464966 565.709290,535.095337 
z"/>
</svg>