<svg version="1.1" id="Layer_1" xmlns="http://www.w3.org/2000/svg" xmlns:xlink="http://www.w3.org/1999/xlink" x="0px" y="0px"
	 width="100%" viewBox="0 0 600 600" enable-background="new 0 0 600 600" xml:space="preserve">
<path fill="#FFFFFF" opacity="1.000000" stroke="none" 
	d="
M351.000000,601.000000 
	C234.000000,601.000000 117.500000,601.000000 1.000000,601.000000 
	C1.000000,401.000000 1.000000,201.000000 1.000000,1.000000 
	C201.000000,1.000000 401.000000,1.000000 601.000000,1.000000 
	C601.000000,201.000000 601.000000,401.000000 601.000000,601.000000 
	C517.833313,601.000000 434.666656,601.000000 351.000000,601.000000 
M544.469971,570.809204 
	C544.793335,570.632568 544.905090,570.366882 544.910767,569.079102 
	C544.910767,522.984924 544.910767,476.890747 544.910767,430.203339 
	C542.430054,430.203339 540.473816,430.203308 538.517578,430.203308 
	C492.203064,430.203308 445.887512,430.040222 399.574799,430.328644 
	C389.195587,430.393280 378.671631,431.209381 368.480896,433.109406 
	C335.546356,439.249878 309.821259,456.855438 292.022522,485.076904 
	C274.975098,512.107056 258.983765,539.803528 242.555710,567.223511 
	C241.943405,568.245422 241.619324,569.440125 240.977539,571.000000 
	C243.153488,571.000000 244.643829,571.000000 246.134171,571.000000 
	C343.927765,571.000000 441.721375,571.000671 539.514954,570.993591 
	C541.011841,570.993530 542.508667,570.897461 544.469971,570.809204 
M57.095055,32.929779 
	C57.095055,79.018593 57.095055,125.107407 57.095055,171.684479 
	C59.635899,171.684479 61.598423,171.684479 63.560944,171.684479 
	C192.187363,171.684479 320.813782,171.685593 449.440186,171.676239 
	C451.937561,171.676071 454.527252,171.937378 456.903473,171.366898 
	C458.854279,170.898575 461.234161,169.814026 462.248047,168.243530 
	C468.062805,159.236481 473.585175,150.037964 479.098785,140.839691 
	C497.271942,110.521477 515.406067,80.179832 533.537415,49.836582 
	C537.137085,43.812412 540.658142,37.741253 544.622131,31.000202 
	C541.915833,31.000202 540.129700,31.000202 538.343567,31.000202 
	C380.059784,31.000206 221.775970,30.999651 63.492180,31.007086 
	C61.662868,31.007172 59.833561,31.110790 57.503159,31.143301 
	C57.406620,31.428709 57.310081,31.714117 57.095055,32.929779 
M201.827362,331.296906 
	C201.466064,331.856842 201.089096,332.407349 200.745697,332.978088 
	C155.163406,408.735870 109.581696,484.494019 64.009758,560.257996 
	C61.996162,563.605652 60.072372,567.007263 57.747974,571.000000 
	C60.293304,571.000000 61.939880,571.000000 63.586456,571.000000 
	C114.565758,571.000000 165.545242,570.943237 216.524017,571.107666 
	C220.612564,571.120850 222.746811,569.695068 224.746429,566.364868 
	C297.003632,446.028229 369.340332,325.739288 441.656738,205.438187 
	C444.955109,199.951294 448.167450,194.412704 451.766388,188.310684 
	C449.553070,188.103348 448.288849,187.882080 447.024567,187.881577 
	C417.369965,187.869614 387.713776,187.719223 358.061798,188.001465 
	C350.510529,188.073318 342.828369,188.867188 335.452728,190.466034 
	C298.825256,198.405807 270.280884,218.212357 250.617813,250.208694 
	C234.229233,276.876740 218.302261,303.828461 201.827362,331.296906 
z"/>
<path fill="#4E5EE4" opacity="1.000000" stroke="none" 
	d="
M58.004253,31.166080 
	C59.833561,31.110790 61.662868,31.007172 63.492180,31.007086 
	C221.775970,30.999651 380.059784,31.000206 538.343567,31.000202 
	C540.129700,31.000202 541.915833,31.000202 544.622131,31.000202 
	C540.658142,37.741253 537.137085,43.812412 533.537415,49.836582 
	C515.406067,80.179832 497.271942,110.521477 479.098785,140.839691 
	C473.585175,150.037964 468.062805,159.236481 462.248047,168.243530 
	C461.234161,169.814026 458.854279,170.898575 456.903473,171.366898 
	C454.527252,171.937378 451.937561,171.676071 449.440186,171.676239 
	C320.813782,171.685593 192.187363,171.684479 63.560944,171.684479 
	C61.598423,171.684479 59.635899,171.684479 57.095055,171.684479 
	C57.095055,125.107407 57.095055,79.018593 57.324631,32.366394 
	C57.760345,31.630362 57.910362,31.418053 58.004253,31.166080 
z"/>
<path fill="#63B0F9" opacity="1.000000" stroke="none" 
	d="
M201.999084,330.975708 
	C218.302261,303.828461 234.229233,276.876740 250.617813,250.208694 
	C270.280884,218.212357 298.825256,198.405807 335.452728,190.466034 
	C342.828369,188.867188 350.510529,188.073318 358.061798,188.001465 
	C387.713776,187.719223 417.369965,187.869614 447.024567,187.881577 
	C448.288849,187.882080 449.553070,188.103348 451.766388,188.310684 
	C448.167450,194.412704 444.955109,199.951294 441.656738,205.438187 
	C369.340332,325.739288 297.003632,446.028229 224.746429,566.364868 
	C222.746811,569.695068 220.612564,571.120850 216.524017,571.107666 
	C165.545242,570.943237 114.565758,571.000000 63.586456,571.000000 
	C61.939880,571.000000 60.293304,571.000000 57.747974,571.000000 
	C60.072372,567.007263 61.996162,563.605652 64.009758,560.257996 
	C109.581696,484.494019 155.163406,408.735870 200.745697,332.978088 
	C201.089096,332.407349 201.466064,331.856842 201.999084,330.975708 
z"/>
<path fill="#63D2F9" opacity="1.000000" stroke="none" 
	d="
M544.005554,570.846130 
	C542.508667,570.897461 541.011841,570.993530 539.514954,570.993591 
	C441.721375,571.000671 343.927765,571.000000 246.134171,571.000000 
	C244.643829,571.000000 243.153488,571.000000 240.977539,571.000000 
	C241.619324,569.440125 241.943405,568.245422 242.555710,567.223511 
	C258.983765,539.803528 274.975098,512.107056 292.022522,485.076904 
	C309.821259,456.855438 335.546356,439.249878 368.480896,433.109406 
	C378.671631,431.209381 389.195587,430.393280 399.574799,430.328644 
	C445.887512,430.040222 492.203064,430.203308 538.517578,430.203308 
	C540.473816,430.203308 542.430054,430.203339 544.910767,430.203339 
	C544.910767,476.890747 544.910767,522.984924 544.688232,569.645569 
	C544.256226,570.382751 544.102844,570.594116 544.005554,570.846130 
z"/>
<path fill="#6472E7" opacity="1.000000" stroke="none" 
	d="
M57.753708,31.154690 
	C57.910362,31.418053 57.760345,31.630362 57.383873,31.901266 
	C57.310081,31.714117 57.406620,31.428709 57.753708,31.154690 
z"/>
<path fill="#76D7F9" opacity="1.000000" stroke="none" 
	d="
M544.237793,570.827637 
	C544.102844,570.594116 544.256226,570.382751 544.635498,570.112061 
	C544.905090,570.366882 544.793335,570.632568 544.237793,570.827637 
z"/>
</svg>