<svg version="1.1" id="Layer_1" xmlns="http://www.w3.org/2000/svg" xmlns:xlink="http://www.w3.org/1999/xlink" x="0px" y="0px"
	 width="100%" viewBox="0 0 225 224" enable-background="new 0 0 225 224" xml:space="preserve">
<path fill="#E6532D" opacity="1.000000" stroke="none" 
	d="
M121.000000,225.000000 
	C113.979050,225.000000 106.958107,225.000000 99.302734,224.636917 
	C51.675068,216.618927 20.484268,190.336823 5.615387,145.030701 
	C3.586349,138.848129 2.514845,132.351318 1.000000,126.000000 
	C1.000000,117.979103 1.000000,109.958199 1.362206,101.297089 
	C8.159966,49.676693 45.537701,12.248405 92.201897,4.225845 
	C135.004868,-3.132890 170.607880,11.178036 198.327438,44.234543 
	C212.942322,61.663288 220.453506,82.319580 222.308121,105.126968 
	C226.483887,156.479172 194.047592,204.844284 144.733337,219.862793 
	C137.016449,222.212936 128.920609,223.318787 121.000000,225.000000 
M163.994019,174.976318 
	C163.994019,169.062332 163.994019,163.148331 163.994019,157.334167 
	C128.909760,157.334167 94.541451,157.334167 60.005814,157.334167 
	C60.005814,163.746704 60.005814,169.869766 60.665462,176.495071 
	C61.970184,176.664017 63.274780,176.979324 64.579643,176.980453 
	C96.145401,177.008011 127.711227,177.017776 159.276886,176.955261 
	C160.843994,176.952164 162.409775,176.267731 163.994019,174.976318 
M66.670914,100.383110 
	C68.970642,108.525032 71.270378,116.666954 73.765007,125.498886 
	C64.457802,123.601372 54.416618,121.554214 43.740314,119.377571 
	C46.193420,128.720139 51.198166,135.776520 56.179863,142.871826 
	C58.597244,146.314850 61.632664,147.290436 65.836731,147.260498 
	C93.985359,147.060089 122.169098,146.360458 150.270813,147.525940 
	C162.476120,148.032150 169.221695,143.377945 174.038223,133.454315 
	C176.205795,128.988419 178.308960,124.491234 180.838135,119.174065 
	C168.627808,121.464790 157.912659,123.475006 146.372650,125.639969 
	C146.958694,123.515800 146.998413,122.825485 147.315109,122.303093 
	C158.077011,104.552223 156.295563,86.704620 147.137039,69.169334 
	C141.397888,58.180965 135.855209,47.383968 138.588043,34.191586 
	C137.089981,35.460072 135.629333,36.708931 135.025574,38.285858 
	C132.549484,44.753117 130.190521,51.274189 128.076782,57.867886 
	C126.789513,61.883419 126.028290,66.067589 125.003395,70.288788 
	C121.848686,59.948086 119.157280,50.287666 115.931503,40.809101 
	C113.192856,32.761887 108.797112,25.124983 111.399185,15.875128 
	C104.429085,19.164562 101.354904,25.088360 100.117630,31.860327 
	C98.927017,38.376949 98.960434,45.112064 97.870827,51.653702 
	C96.729332,58.506851 95.299828,65.405205 90.467186,71.617264 
	C88.222778,51.278965 85.151756,43.887699 78.770729,41.704597 
	C78.465439,46.301907 78.674362,51.157055 77.699799,55.761719 
	C76.538841,61.247093 74.049637,66.440018 72.696709,71.898643 
	C70.436485,81.017952 68.621391,90.247581 66.670914,100.383110 
M129.486710,184.533554 
	C113.139015,184.533554 96.791328,184.533554 80.429382,184.533554 
	C80.974236,200.555237 95.672691,213.138870 119.580551,210.872757 
	C131.048233,209.785782 143.707977,195.702850 142.786224,184.533737 
	C138.716751,184.533737 134.598572,184.533737 129.486710,184.533554 
z"/>
<path fill="#FFFEFE" opacity="1.000000" stroke="none" 
	d="
M121.468658,225.000000 
	C128.920609,223.318787 137.016449,222.212936 144.733337,219.862793 
	C194.047592,204.844284 226.483887,156.479172 222.308121,105.126968 
	C220.453506,82.319580 212.942322,61.663288 198.327438,44.234543 
	C170.607880,11.178036 135.004868,-3.132890 92.201897,4.225845 
	C45.537701,12.248405 8.159966,49.676693 1.362206,100.828438 
	C1.000000,67.688980 1.000000,34.377953 1.000000,1.033465 
	C75.927475,1.033465 150.854980,1.033465 225.891235,1.033465 
	C225.891235,75.544044 225.891235,150.088303 225.891235,225.000000 
	C191.313309,225.000000 156.625305,225.000000 121.468658,225.000000 
z"/>
<path fill="#FFFEFE" opacity="1.000000" stroke="none" 
	d="
M1.000000,126.468658 
	C2.514845,132.351318 3.586349,138.848129 5.615387,145.030701 
	C20.484268,190.336823 51.675068,216.618927 98.834152,224.636917 
	C66.406029,225.000000 33.812057,225.000000 1.000000,225.000000 
	C1.000000,192.312759 1.000000,159.625046 1.000000,126.468658 
z"/>
<path fill="#FFFEFE" opacity="1.000000" stroke="none" 
	d="
M66.644913,99.906937 
	C68.621391,90.247581 70.436485,81.017952 72.696709,71.898643 
	C74.049637,66.440018 76.538841,61.247093 77.699799,55.761719 
	C78.674362,51.157055 78.465439,46.301907 78.770729,41.704597 
	C85.151756,43.887699 88.222778,51.278965 90.467186,71.617264 
	C95.299828,65.405205 96.729332,58.506851 97.870827,51.653702 
	C98.960434,45.112064 98.927017,38.376949 100.117630,31.860327 
	C101.354904,25.088360 104.429085,19.164562 111.399185,15.875128 
	C108.797112,25.124983 113.192856,32.761887 115.931503,40.809101 
	C119.157280,50.287666 121.848686,59.948086 125.003395,70.288788 
	C126.028290,66.067589 126.789513,61.883419 128.076782,57.867886 
	C130.190521,51.274189 132.549484,44.753117 135.025574,38.285858 
	C135.629333,36.708931 137.089981,35.460072 138.588043,34.191586 
	C135.855209,47.383968 141.397888,58.180965 147.137039,69.169334 
	C156.295563,86.704620 158.077011,104.552223 147.315109,122.303093 
	C146.998413,122.825485 146.958694,123.515800 146.372650,125.639969 
	C157.912659,123.475006 168.627808,121.464790 180.838135,119.174065 
	C178.308960,124.491234 176.205795,128.988419 174.038223,133.454315 
	C169.221695,143.377945 162.476120,148.032150 150.270813,147.525940 
	C122.169098,146.360458 93.985359,147.060089 65.836731,147.260498 
	C61.632664,147.290436 58.597244,146.314850 56.179863,142.871826 
	C51.198166,135.776520 46.193420,128.720139 43.740314,119.377571 
	C54.416618,121.554214 64.457802,123.601372 73.765007,125.498886 
	C71.270378,116.666954 68.970642,108.525032 66.644913,99.906937 
z"/>
<path fill="#FFFFFF" opacity="1.000000" stroke="none" 
	d="
M60.005814,175.992828 
	C60.005814,169.869766 60.005814,163.746704 60.005814,157.334167 
	C94.541451,157.334167 128.909760,157.334167 163.994019,157.334167 
	C163.994019,163.148331 163.994019,169.062332 163.519943,175.482147 
	C128.699188,175.989609 94.352501,175.991226 60.005814,175.992828 
z"/>
<path fill="#FFFDFD" opacity="1.000000" stroke="none" 
	d="
M129.983551,184.533646 
	C134.598572,184.533737 138.716751,184.533737 142.786224,184.533737 
	C143.707977,195.702850 131.048233,209.785782 119.580551,210.872757 
	C95.672691,213.138870 80.974236,200.555237 80.429382,184.533554 
	C96.791328,184.533554 113.139015,184.533554 129.983551,184.533646 
z"/>
<path fill="#E43E00" opacity="1.000000" stroke="none" 
	d="
M60.335640,176.243958 
	C94.352501,175.991226 128.699188,175.989609 163.511017,175.944275 
	C162.409775,176.267731 160.843994,176.952164 159.276886,176.955261 
	C127.711227,177.017776 96.145401,177.008011 64.579643,176.980453 
	C63.274780,176.979324 61.970184,176.664017 60.335640,176.243958 
z"/>
</svg>